<?xml version="1.0" encoding="UTF-8" standalone="no"?><svg width="100%" height="100%" viewBox="0 0 286 30" version="1.1" xmlns="http://www.w3.org/2000/svg" xmlns:xlink="http://www.w3.org/1999/xlink" xml:space="preserve" xmlns:serif="http://www.serif.com/" style="fill-rule:evenodd;clip-rule:evenodd;stroke-linejoin:round;stroke-miterlimit:2;"><path d="M121.69,0.938l-4.44,27.014l8.611,0l3.116,-18.955l0.116,0l7.135,18.955l7.088,0l13.397,-19.144l0.118,0l-3.147,19.144l8.61,0l4.44,-27.014l-12.945,0l-12.308,18.577l-0.117,0l-6.729,-18.577l-12.945,0Zm142.267,15.179l1,-6.083l8.06,0c1.686,0 2.912,0.242 3.681,0.696c0.764,0.484 1.061,1.241 0.887,2.3c-0.179,1.09 -0.73,1.877 -1.653,2.361c-0.923,0.484 -2.229,0.726 -3.915,0.726l-8.06,0Zm-5.75,-9.776l-3.552,21.611l7.357,0l1.388,-8.444l7.357,0c1.828,0 3.142,0.272 3.854,0.786c0.712,0.515 1.134,1.362 1.185,2.482c0.043,0.878 0.035,1.786 -0.026,2.724c-0.061,0.938 0.04,1.756 0.347,2.452l7.357,0c-0.278,-0.303 -0.5,-0.666 -0.566,-1.12c-0.117,-0.424 -0.184,-0.878 -0.151,-1.362c-0.014,-0.484 0.018,-0.968 0.046,-1.423c0.028,-0.454 0.098,-0.877 0.106,-1.21c0.042,-0.545 -0.009,-1.09 -0.06,-1.635c-0.098,-0.545 -0.294,-1.059 -0.594,-1.513c-0.301,-0.454 -0.704,-0.847 -1.259,-1.181c-0.554,-0.333 -1.264,-0.575 -2.13,-0.726l0.01,-0.061c1.954,-0.484 3.428,-1.18 4.425,-2.118c0.951,-0.939 1.552,-2.028 1.761,-3.299c0.134,-0.817 0.029,-1.604 -0.273,-2.331c-0.355,-0.696 -0.906,-1.332 -1.66,-1.876c-0.801,-0.546 -1.762,-0.969 -2.879,-1.302c-1.169,-0.302 -2.502,-0.454 -4.002,-0.454l-18.041,0Zm-28.229,10.896c0.154,-0.938 0.496,-1.877 0.969,-2.754c0.472,-0.878 1.121,-1.695 1.939,-2.391c0.817,-0.696 1.844,-1.241 3.085,-1.665c1.236,-0.393 2.677,-0.605 4.317,-0.605c1.64,0 3.011,0.212 4.117,0.605c1.103,0.424 1.95,0.969 2.538,1.665c0.589,0.696 1.017,1.513 1.2,2.391c0.185,0.877 0.171,1.816 0.017,2.754c-0.15,0.908 -0.434,1.786 -0.902,2.633c-0.472,0.878 -1.159,1.635 -1.976,2.331c-0.817,0.696 -1.844,1.241 -3.08,1.635c-1.241,0.423 -2.682,0.635 -4.322,0.635c-1.64,0 -3.011,-0.212 -4.113,-0.635c-1.107,-0.394 -1.954,-0.939 -2.543,-1.635c-0.588,-0.696 -0.979,-1.453 -1.163,-2.331c-0.189,-0.847 -0.232,-1.725 -0.083,-2.633Zm-7.357,0c-0.258,1.574 -0.122,3.027 0.403,4.389c0.526,1.362 1.405,2.573 2.647,3.571c1.242,0.999 2.846,1.786 4.813,2.361c1.916,0.605 4.167,0.878 6.744,0.878c2.577,0 4.965,-0.273 7.08,-0.878c2.109,-0.575 3.972,-1.362 5.542,-2.361c1.57,-0.998 2.848,-2.209 3.821,-3.571c0.973,-1.362 1.587,-2.815 1.846,-4.389c0.263,-1.604 0.137,-3.117 -0.384,-4.51c-0.525,-1.362 -1.404,-2.572 -2.641,-3.601c-1.237,-1.029 -2.836,-1.846 -4.757,-2.422c-1.92,-0.575 -4.214,-0.877 -6.791,-0.877c-2.577,0 -4.923,0.302 -7.032,0.877c-2.157,0.576 -4.024,1.393 -5.599,2.422c-1.576,1.029 -2.852,2.239 -3.826,3.601c-0.978,1.393 -1.602,2.906 -1.866,4.51Zm-14.526,-6.901l-2.895,17.616l7.357,0l2.896,-17.616l10.028,0l0.656,-3.995l-27.413,0l-0.656,3.995l10.027,0Zm-34.976,6.901c0.155,-0.938 0.496,-1.877 0.969,-2.754c0.472,-0.878 1.122,-1.695 1.939,-2.391c0.818,-0.696 1.844,-1.241 3.085,-1.665c1.236,-0.393 2.677,-0.605 4.317,-0.605c1.64,0 3.011,0.212 4.118,0.605c1.102,0.424 1.949,0.969 2.538,1.665c0.588,0.696 1.016,1.513 1.2,2.391c0.184,0.877 0.17,1.816 0.016,2.754c-0.15,0.908 -0.434,1.786 -0.902,2.633c-0.472,0.878 -1.159,1.635 -1.975,2.331c-0.818,0.696 -1.845,1.241 -3.081,1.635c-1.241,0.423 -2.681,0.635 -4.321,0.635c-1.641,0 -3.012,-0.212 -4.113,-0.635c-1.107,-0.394 -1.955,-0.939 -2.544,-1.635c-0.588,-0.696 -0.979,-1.453 -1.163,-2.331c-0.189,-0.847 -0.232,-1.725 -0.083,-2.633Zm-7.357,0c-0.258,1.574 -0.122,3.027 0.404,4.389c0.526,1.362 1.404,2.573 2.646,3.571c1.242,0.999 2.846,1.786 4.814,2.361c1.915,0.605 4.166,0.878 6.744,0.878c2.577,0 4.965,-0.273 7.079,-0.878c2.11,-0.575 3.973,-1.362 5.543,-2.361c1.57,-0.998 2.847,-2.209 3.82,-3.571c0.974,-1.362 1.587,-2.815 1.846,-4.389c0.263,-1.604 0.138,-3.117 -0.383,-4.51c-0.526,-1.362 -1.405,-2.572 -2.642,-3.601c-1.237,-1.029 -2.836,-1.846 -4.757,-2.422c-1.92,-0.575 -4.213,-0.877 -6.79,-0.877c-2.578,0 -4.923,0.302 -7.033,0.877c-2.157,0.576 -4.024,1.393 -5.599,2.422c-1.575,1.029 -2.852,2.239 -3.826,3.601c-0.978,1.393 -1.602,2.906 -1.866,4.51" style="fill:#124094;fill-rule:nonzero;"></path><path d="M20.443,18.432c1.442,0.267 1.775,1.028 1.646,1.828c-0.216,1.333 -1.272,2.209 -4.623,2.209c-1.637,0 -2.825,-0.19 -3.564,-0.571c-0.655,-0.419 -0.931,-1.067 -0.827,-1.942l-12.949,0c-1.295,7.997 7.622,9.14 15.848,9.14c12.072,0 17.98,-3.086 19.059,-9.75c0.486,-3.005 -0.581,-5.119 -2.856,-6.448l-29.535,0c0.798,1.859 2.643,3.212 5.834,3.706l11.967,1.828Zm-6.52,-10.617c0.345,-1.01 1.622,-1.645 4.544,-1.645c1.181,0 2.375,0.152 3.259,0.571c0.586,0.255 1.003,0.596 1.197,1.074l12.616,0c-0.139,-5.055 -4.756,-7.815 -16.073,-7.815c-8.34,0 -15.224,1.698 -16.929,7.815l11.386,0Zm52.532,-0.237l-0.037,0.237l-25.887,0l-1.638,0l1.111,-6.863l27.534,0l-1.073,6.626l-0.01,0Zm-2.184,5.32l-0.883,5.458l-0.004,0l-0.149,0.944l-15.462,0l-1.432,8.843l-10.739,0l2.468,-15.245l26.201,0Zm0.097,15.245l10.739,0l1.356,-8.378l7.617,0c1.98,0 2.468,1.219 2.256,3.237c-0.321,3.161 -0.55,4.342 -0.261,5.141l11.73,0c-0.582,-0.875 -0.898,-1.98 -0.815,-3.199l0.504,-5.941c0.199,-2.399 -0.843,-3.732 -2.406,-4.189l0.012,-0.076c3.309,-0.914 4.775,-3.618 5.194,-6.207c0.487,-3.009 -0.775,-5.56 -2.627,-6.589c-1.368,-0.723 -3.191,-0.99 -6.276,-0.99l-22.621,0l-1.111,6.863c6.074,0 12.133,-0.008 18.205,-0.008c1.79,0 3.049,0.457 2.709,2.551c-0.277,1.715 -1.251,2.552 -3.383,2.552c-6.126,0 -12.223,-0.012 -18.354,-0.012l-2.468,15.245Z" style="fill:#124094;fill-rule:nonzero;"></path><path d="M115.692,0.938l-8.552,0l-1.301,7.915l8.556,0l1.297,-7.915Z" style="fill:#e5270e;"></path><path d="M114.134,10.446l-8.557,0l-1.308,7.957l8.561,0l1.304,-7.957Z" style="fill:#eb5e04;"></path><path d="M112.568,19.996l-8.561,0l-1.307,7.956l8.565,0l1.303,-7.956Z" style="fill:#ed8200;"></path></svg>