<?xml version="1.0" encoding="UTF-8" standalone="no"?><svg width="100%" height="100%" viewBox="0 0 101 52" version="1.1" xmlns="http://www.w3.org/2000/svg" xmlns:xlink="http://www.w3.org/1999/xlink" xml:space="preserve" xmlns:serif="http://www.serif.com/" style="fill-rule:evenodd;clip-rule:evenodd;stroke-linejoin:round;stroke-miterlimit:2;"><path d="M2.658,35.035l-2.658,16.172l5.155,0l1.865,-11.348l0.07,0l4.272,11.348l4.243,0l8.021,-11.461l0.07,0l-1.884,11.461l5.155,0l2.658,-16.172l-7.75,0l-7.368,11.121l-0.07,0l-4.029,-11.121l-7.75,0Zm85.172,9.087l0.599,-3.642l4.826,0c1.009,0 1.743,0.145 2.203,0.417c0.458,0.29 0.636,0.743 0.531,1.377c-0.107,0.652 -0.437,1.124 -0.99,1.413c-0.552,0.291 -1.334,0.435 -2.343,0.435l-4.826,0Zm-3.442,-5.853l-2.127,12.938l4.405,0l0.831,-5.055l4.404,0c1.095,0 1.882,0.163 2.308,0.471c0.426,0.308 0.679,0.815 0.709,1.486c0.026,0.525 0.021,1.069 -0.015,1.631c-0.037,0.561 0.023,1.051 0.207,1.467l4.404,0c-0.166,-0.181 -0.299,-0.398 -0.338,-0.67c-0.07,-0.254 -0.11,-0.525 -0.09,-0.816c-0.009,-0.289 0.01,-0.579 0.027,-0.851c0.017,-0.272 0.059,-0.526 0.063,-0.725c0.026,-0.326 -0.005,-0.652 -0.035,-0.979c-0.059,-0.326 -0.177,-0.634 -0.356,-0.906c-0.18,-0.271 -0.422,-0.507 -0.754,-0.706c-0.332,-0.199 -0.757,-0.345 -1.275,-0.435l0.006,-0.036c1.17,-0.29 2.052,-0.707 2.649,-1.268c0.569,-0.563 0.929,-1.215 1.054,-1.976c0.081,-0.489 0.018,-0.96 -0.163,-1.395c-0.212,-0.417 -0.542,-0.797 -0.994,-1.123c-0.479,-0.327 -1.055,-0.58 -1.723,-0.78c-0.7,-0.181 -1.498,-0.272 -2.396,-0.272l-10.801,0Zm-16.9,6.524c0.092,-0.562 0.297,-1.124 0.58,-1.649c0.282,-0.526 0.671,-1.015 1.161,-1.432c0.489,-0.416 1.104,-0.743 1.847,-0.996c0.74,-0.236 1.602,-0.363 2.584,-0.363c0.982,0 1.803,0.127 2.465,0.363c0.66,0.253 1.167,0.58 1.52,0.996c0.352,0.417 0.608,0.906 0.718,1.432c0.11,0.525 0.102,1.087 0.01,1.649c-0.09,0.543 -0.26,1.069 -0.54,1.576c-0.282,0.526 -0.694,0.979 -1.183,1.395c-0.489,0.417 -1.104,0.743 -1.844,0.979c-0.743,0.254 -1.606,0.38 -2.587,0.38c-0.982,0 -1.803,-0.126 -2.463,-0.38c-0.662,-0.236 -1.169,-0.562 -1.522,-0.979c-0.352,-0.416 -0.587,-0.869 -0.696,-1.395c-0.113,-0.507 -0.139,-1.033 -0.05,-1.576Zm-4.405,0c-0.154,0.942 -0.073,1.812 0.242,2.627c0.315,0.815 0.841,1.541 1.584,2.138c0.744,0.598 1.704,1.069 2.882,1.414c1.147,0.362 2.495,0.525 4.037,0.525c1.543,0 2.973,-0.163 4.239,-0.525c1.263,-0.345 2.378,-0.816 3.318,-1.414c0.94,-0.597 1.705,-1.323 2.287,-2.138c0.583,-0.815 0.951,-1.685 1.105,-2.627c0.158,-0.961 0.083,-1.867 -0.229,-2.7c-0.315,-0.816 -0.841,-1.541 -1.581,-2.157c-0.741,-0.615 -1.698,-1.104 -2.848,-1.449c-1.15,-0.344 -2.523,-0.525 -4.066,-0.525c-1.543,0 -2.947,0.181 -4.21,0.525c-1.291,0.345 -2.409,0.834 -3.352,1.449c-0.943,0.616 -1.707,1.341 -2.29,2.157c-0.586,0.833 -0.96,1.739 -1.118,2.7Zm-8.696,-4.132l-1.733,10.546l4.405,0l1.733,-10.546l6.003,0l0.393,-2.392l-16.411,0l-0.393,2.392l6.003,0Zm-20.939,4.132c0.092,-0.562 0.297,-1.124 0.58,-1.649c0.282,-0.526 0.671,-1.015 1.16,-1.432c0.49,-0.416 1.105,-0.743 1.848,-0.996c0.74,-0.236 1.602,-0.363 2.584,-0.363c0.982,0 1.803,0.127 2.465,0.363c0.66,0.253 1.167,0.58 1.52,0.996c0.352,0.417 0.608,0.906 0.718,1.432c0.111,0.525 0.102,1.087 0.01,1.649c-0.09,0.543 -0.26,1.069 -0.54,1.576c-0.283,0.526 -0.694,0.979 -1.183,1.395c-0.489,0.417 -1.104,0.743 -1.844,0.979c-0.743,0.254 -1.605,0.38 -2.587,0.38c-0.982,0 -1.803,-0.126 -2.463,-0.38c-0.662,-0.236 -1.17,-0.562 -1.522,-0.979c-0.353,-0.416 -0.587,-0.869 -0.696,-1.395c-0.114,-0.507 -0.14,-1.033 -0.05,-1.576Zm-4.405,0c-0.155,0.942 -0.073,1.812 0.242,2.627c0.315,0.815 0.841,1.541 1.584,2.138c0.744,0.598 1.704,1.069 2.882,1.414c1.147,0.362 2.494,0.525 4.037,0.525c1.543,0 2.973,-0.163 4.238,-0.525c1.264,-0.345 2.379,-0.816 3.319,-1.414c0.94,-0.597 1.705,-1.323 2.287,-2.138c0.583,-0.815 0.95,-1.685 1.105,-2.627c0.158,-0.961 0.083,-1.867 -0.229,-2.7c-0.315,-0.816 -0.841,-1.541 -1.582,-2.157c-0.74,-0.615 -1.698,-1.104 -2.848,-1.449c-1.149,-0.344 -2.522,-0.525 -4.065,-0.525c-1.543,0 -2.947,0.181 -4.21,0.525c-1.291,0.345 -2.409,0.834 -3.352,1.449c-0.943,0.616 -1.708,1.341 -2.29,2.157c-0.586,0.833 -0.96,1.739 -1.118,2.7" style="fill:#124094;fill-rule:nonzero;"></path><path d="M20.462,18.432c1.442,0.267 1.776,1.028 1.646,1.828c-0.215,1.333 -1.271,2.209 -4.622,2.209c-1.638,0 -2.826,-0.19 -3.564,-0.571c-0.656,-0.419 -0.932,-1.067 -0.828,-1.942l-12.949,0c-1.294,7.997 7.623,9.14 15.849,9.14c12.072,0 17.979,-3.086 19.058,-9.75c0.487,-3.005 -0.58,-5.119 -2.856,-6.448l-29.535,0c0.799,1.859 2.643,3.212 5.834,3.706l11.967,1.828Zm-6.519,-10.617c0.345,-1.01 1.622,-1.645 4.544,-1.645c1.18,0 2.374,0.152 3.258,0.571c0.587,0.255 1.003,0.596 1.198,1.074l12.616,0c-0.139,-5.055 -4.757,-7.815 -16.073,-7.815c-8.341,0 -15.225,1.698 -16.929,7.815l11.386,0Zm52.531,-0.237l-0.037,0.237l-23.392,0l-4.133,0l1.111,-6.863l27.535,0l-1.073,6.626l-0.011,0Zm-2.183,5.32l-0.884,5.458l-0.003,0l-0.149,0.944l-15.463,0l-1.431,8.843l-10.74,0l2.468,-15.245l26.202,0Zm0.096,15.245l10.739,0l1.357,-8.378l7.616,0c1.981,0 2.469,1.219 2.257,3.237c-0.322,3.161 -0.551,4.341 -0.262,5.141l11.73,0c-0.582,-0.875 -0.898,-1.98 -0.815,-3.199l0.505,-5.941c0.198,-2.399 -0.843,-3.732 -2.407,-4.189l0.013,-0.076c3.308,-0.914 4.774,-3.618 5.194,-6.207c0.487,-3.009 -0.776,-5.56 -2.628,-6.589c-1.368,-0.723 -3.191,-0.99 -6.275,-0.99l-22.622,0l-1.111,6.863c6.074,0 12.133,-0.008 18.205,-0.008c1.79,0 3.049,0.457 2.71,2.551c-0.278,1.714 -1.251,2.552 -3.384,2.552c-6.126,0 -12.223,-0.012 -18.354,-0.012l-2.468,15.245Z" style="fill:#124094;fill-rule:nonzero;"></path><path d="M57.029,31.058l19.623,0l-0.769,4.512l-19.623,0l0.769,-4.512Z" style="fill:#eb5e04;"></path><path d="M35.137,31.058l19.623,0l-0.769,4.511l-19.622,0l0.768,-4.511Z" style="fill:#ed8200;"></path><path d="M78.921,31.058l19.623,0l-0.769,4.512l-19.623,0l0.769,-4.512Z" style="fill:#e5270e;"></path></svg>