<svg xmlns="http://www.w3.org/2000/svg" xmlns:xlink="http://www.w3.org/1999/xlink" width="460" zoomAndPan="magnify" viewBox="0 0 345 231.75" height="309" preserveAspectRatio="xMidYMid meet" version="1.0"><defs><clipPath id="8d759db8bd"><path d="M 289.386719 65.472656 L 313.59375 65.472656 L 313.59375 105.347656 L 289.386719 105.347656 Z M 289.386719 65.472656 " clip-rule="nonzero"/></clipPath><clipPath id="9e2b51d10c"><path d="M 298.738281 65.472656 L 289.480469 65.472656 L 304.085938 105.058594 L 304.085938 105.335938 L 313.5 105.335938 L 298.890625 65.75 Z M 298.738281 65.472656 " clip-rule="nonzero"/></clipPath><clipPath id="3230c23e2d"><path d="M 0.417969 0.472656 L 24.59375 0.472656 L 24.59375 40.347656 L 0.417969 40.347656 Z M 0.417969 0.472656 " clip-rule="nonzero"/></clipPath><clipPath id="55ccf076a9"><path d="M 9.738281 0.472656 L 0.480469 0.472656 L 15.085938 40.058594 L 15.085938 40.335938 L 24.5 40.335938 L 9.890625 0.75 Z M 9.738281 0.472656 " clip-rule="nonzero"/></clipPath><clipPath id="5bbbe88158"><rect x="0" width="25" y="0" height="41"/></clipPath><clipPath id="62876d8a36"><path d="M 262.929688 65.472656 L 291 65.472656 L 291 105.359375 L 262.929688 105.359375 Z M 262.929688 65.472656 " clip-rule="nonzero"/></clipPath><clipPath id="0efc911934"><path d="M 274.28125 65.628906 L 262.929688 105.335938 L 271.542969 105.335938 L 280.429688 75.960938 L 290.980469 75.960938 L 287.199219 65.472656 Z M 274.28125 65.628906 " clip-rule="nonzero"/></clipPath><clipPath id="6a0b657244"><path d="M 0.929688 0.472656 L 29 0.472656 L 29 40.359375 L 0.929688 40.359375 Z M 0.929688 0.472656 " clip-rule="nonzero"/></clipPath><clipPath id="7c27bedff0"><path d="M 12.28125 0.628906 L 0.929688 40.335938 L 9.542969 40.335938 L 18.429688 10.960938 L 28.980469 10.960938 L 25.199219 0.472656 Z M 12.28125 0.628906 " clip-rule="nonzero"/></clipPath><clipPath id="6d3e9127b2"><rect x="0" width="29" y="0" height="41"/></clipPath><clipPath id="8241f45a95"><path d="M 0.550781 65.550781 L 53.46875 65.550781 L 53.46875 90.324219 L 0.550781 90.324219 Z M 0.550781 65.550781 " clip-rule="nonzero"/></clipPath><clipPath id="cf4e3c1551"><path d="M 9.128906 84.570312 L 9.003906 84.417969 L 9.003906 76.859375 L 13.429688 71.882812 L 40.410156 71.882812 L 53.441406 85.523438 L 53.441406 72.15625 L 46.925781 65.703125 L 6.636719 65.550781 L 0.644531 72.15625 L 0.644531 80.855469 L 9.128906 90.226562 Z M 9.128906 84.570312 " clip-rule="nonzero"/></clipPath><clipPath id="f463b1708d"><path d="M 0.550781 0.550781 L 53.46875 0.550781 L 53.46875 25.324219 L 0.550781 25.324219 Z M 0.550781 0.550781 " clip-rule="nonzero"/></clipPath><clipPath id="6b847cab39"><path d="M 9.128906 19.570312 L 9.003906 19.417969 L 9.003906 11.859375 L 13.429688 6.882812 L 40.410156 6.882812 L 53.441406 20.523438 L 53.441406 7.15625 L 46.925781 0.703125 L 6.636719 0.550781 L 0.644531 7.15625 L 0.644531 15.855469 L 9.128906 25.226562 Z M 9.128906 19.570312 " clip-rule="nonzero"/></clipPath><clipPath id="19a38daf22"><rect x="0" width="54" y="0" height="26"/></clipPath><clipPath id="467577b31b"><path d="M 0.625 80.523438 L 53.449219 80.523438 L 53.449219 105.199219 L 0.625 105.199219 Z M 0.625 80.523438 " clip-rule="nonzero"/></clipPath><clipPath id="c0b9344860"><path d="M 44.96875 94.097656 L 44.847656 94.097656 L 44.847656 94.371094 L 40.167969 98.746094 L 13.320312 98.746094 L 0.722656 84.222656 L 0.722656 98.625 L 7.207031 105.199219 L 46.769531 105.199219 L 53.410156 98.472656 L 53.410156 89.023438 L 44.96875 80.523438 Z M 44.96875 94.097656 " clip-rule="nonzero"/></clipPath><clipPath id="f5b3eca5a8"><path d="M 0.625 0.523438 L 53.449219 0.523438 L 53.449219 25.199219 L 0.625 25.199219 Z M 0.625 0.523438 " clip-rule="nonzero"/></clipPath><clipPath id="a7793d28e7"><path d="M 44.96875 14.097656 L 44.847656 14.097656 L 44.847656 14.371094 L 40.167969 18.746094 L 13.320312 18.746094 L 0.722656 4.222656 L 0.722656 18.625 L 7.207031 25.199219 L 46.769531 25.199219 L 53.410156 18.472656 L 53.410156 9.023438 L 44.96875 0.523438 Z M 44.96875 14.097656 " clip-rule="nonzero"/></clipPath><clipPath id="ce3ad9ca74"><rect x="0" width="54" y="0" height="26"/></clipPath><clipPath id="efc8dcb47f"><path d="M 134.035156 65.550781 L 186.953125 65.550781 L 186.953125 90.324219 L 134.035156 90.324219 Z M 134.035156 65.550781 " clip-rule="nonzero"/></clipPath><clipPath id="564e11d131"><path d="M 142.640625 84.570312 L 142.515625 84.417969 L 142.515625 76.859375 L 146.941406 71.882812 L 173.800781 71.882812 L 186.859375 85.523438 L 186.859375 72.15625 L 180.46875 65.703125 L 140.183594 65.550781 L 134.035156 72.15625 L 134.035156 80.855469 L 142.640625 90.226562 Z M 142.640625 84.570312 " clip-rule="nonzero"/></clipPath><clipPath id="9aae85d6cf"><path d="M 0.0351562 0.550781 L 52.953125 0.550781 L 52.953125 25.324219 L 0.0351562 25.324219 Z M 0.0351562 0.550781 " clip-rule="nonzero"/></clipPath><clipPath id="bfb2aa033b"><path d="M 8.640625 19.570312 L 8.515625 19.417969 L 8.515625 11.859375 L 12.941406 6.882812 L 39.800781 6.882812 L 52.859375 20.523438 L 52.859375 7.15625 L 46.46875 0.703125 L 6.183594 0.550781 L 0.0351562 7.15625 L 0.0351562 15.855469 L 8.640625 25.226562 Z M 8.640625 19.570312 " clip-rule="nonzero"/></clipPath><clipPath id="04fc4f2889"><rect x="0" width="53" y="0" height="26"/></clipPath><clipPath id="be74f2d4bf"><path d="M 134.09375 80.523438 L 186.820312 80.523438 L 186.820312 105.199219 L 134.09375 105.199219 Z M 134.09375 80.523438 " clip-rule="nonzero"/></clipPath><clipPath id="83f70aa3fb"><path d="M 178.464844 94.097656 L 178.34375 94.097656 L 178.34375 94.371094 L 173.664062 98.746094 L 146.816406 98.746094 L 134.097656 84.222656 L 134.097656 98.625 L 140.609375 105.199219 L 180.300781 105.199219 L 186.78125 98.472656 L 186.78125 89.023438 L 178.464844 80.523438 Z M 178.464844 94.097656 " clip-rule="nonzero"/></clipPath><clipPath id="19e7c90cb4"><path d="M 0.09375 0.523438 L 52.808594 0.523438 L 52.808594 25.199219 L 0.09375 25.199219 Z M 0.09375 0.523438 " clip-rule="nonzero"/></clipPath><clipPath id="9453af3f8a"><path d="M 44.464844 14.097656 L 44.34375 14.097656 L 44.34375 14.371094 L 39.664062 18.746094 L 12.816406 18.746094 L 0.0976562 4.222656 L 0.0976562 18.625 L 6.609375 25.199219 L 46.300781 25.199219 L 52.78125 18.472656 L 52.78125 9.023438 L 44.464844 0.523438 Z M 44.464844 14.097656 " clip-rule="nonzero"/></clipPath><clipPath id="f02df27477"><rect x="0" width="53" y="0" height="26"/></clipPath><clipPath id="ff4ee926cb"><path d="M 95.226562 65.609375 L 120.707031 65.609375 L 120.707031 105.566406 L 95.226562 105.566406 Z M 95.226562 65.609375 " clip-rule="nonzero"/></clipPath><clipPath id="135cc29a3b"><path d="M 100.265625 65.609375 L 95.226562 93.007812 L 97.273438 105.070312 L 100.785156 105.195312 L 105.855469 76.027344 L 112.179688 76.027344 L 112.179688 105.46875 L 120.609375 105.46875 L 120.609375 72.328125 L 114.773438 65.609375 Z M 100.265625 65.609375 " clip-rule="nonzero"/></clipPath><clipPath id="978614b6b4"><path d="M 0.226562 0.609375 L 25.640625 0.609375 L 25.640625 40.539062 L 0.226562 40.539062 Z M 0.226562 0.609375 " clip-rule="nonzero"/></clipPath><clipPath id="22952df4b3"><path d="M 5.265625 0.609375 L 0.226562 28.007812 L 2.273438 40.070312 L 5.785156 40.195312 L 10.855469 11.027344 L 17.179688 11.027344 L 17.179688 40.46875 L 25.609375 40.46875 L 25.609375 7.328125 L 19.773438 0.609375 Z M 5.265625 0.609375 " clip-rule="nonzero"/></clipPath><clipPath id="7fd37900ee"><rect x="0" width="26" y="0" height="41"/></clipPath><clipPath id="c96d32f424"><path d="M 66.664062 65.699219 L 94.992188 65.699219 L 94.992188 105.597656 L 66.664062 105.597656 Z M 66.664062 65.699219 " clip-rule="nonzero"/></clipPath><clipPath id="512966dba3"><path d="M 72.394531 65.699219 L 66.664062 72.5625 L 66.664062 105.40625 L 75.242188 105.40625 L 75.242188 76.148438 L 81.617188 76.148438 L 86.304688 105.558594 L 94.882812 105.558594 L 87.867188 65.699219 Z M 72.394531 65.699219 " clip-rule="nonzero"/></clipPath><clipPath id="cf31cb3a06"><path d="M 0.664062 0.699219 L 28.988281 0.699219 L 28.988281 40.597656 L 0.664062 40.597656 Z M 0.664062 0.699219 " clip-rule="nonzero"/></clipPath><clipPath id="467de6de20"><path d="M 6.394531 0.699219 L 0.664062 7.5625 L 0.664062 40.40625 L 9.242188 40.40625 L 9.242188 11.148438 L 15.617188 11.148438 L 20.304688 40.558594 L 28.882812 40.558594 L 21.867188 0.699219 Z M 6.394531 0.699219 " clip-rule="nonzero"/></clipPath><clipPath id="0999046221"><rect x="0" width="29" y="0" height="41"/></clipPath><clipPath id="76f7af0a32"><path d="M 201.378906 65.472656 L 254.472656 65.472656 L 254.472656 105.488281 L 201.378906 105.488281 Z M 201.378906 65.472656 " clip-rule="nonzero"/></clipPath><clipPath id="07a35ef659"><path d="M 236.996094 65.472656 L 245.730469 72.640625 L 245.730469 94.296875 L 239.457031 98.847656 L 210.238281 98.847656 L 210.238281 72.085938 L 240.898438 72.085938 L 232.9375 65.472656 L 201.378906 65.472656 L 201.378906 105.335938 L 248.066406 105.335938 L 254.34375 98.722656 L 254.34375 72.085938 L 246.378906 65.472656 Z M 236.996094 65.472656 " clip-rule="nonzero"/></clipPath><clipPath id="d9cc6014e0"><path d="M 0.378906 0.472656 L 53.414062 0.472656 L 53.414062 40.488281 L 0.378906 40.488281 Z M 0.378906 0.472656 " clip-rule="nonzero"/></clipPath><clipPath id="d18ac7c2be"><path d="M 35.996094 0.472656 L 44.730469 7.640625 L 44.730469 29.296875 L 38.457031 33.847656 L 9.238281 33.847656 L 9.238281 7.085938 L 39.898438 7.085938 L 31.9375 0.472656 L 0.378906 0.472656 L 0.378906 40.335938 L 47.066406 40.335938 L 53.34375 33.722656 L 53.34375 7.085938 L 45.378906 0.472656 Z M 35.996094 0.472656 " clip-rule="nonzero"/></clipPath><clipPath id="7cf94c341b"><rect x="0" width="54" y="0" height="41"/></clipPath><clipPath id="af09725ec2"><path d="M 160.117188 0.648438 L 169.324219 0.648438 L 169.324219 36.722656 L 160.117188 36.722656 Z M 160.117188 0.648438 " clip-rule="nonzero"/></clipPath><clipPath id="76aff0981e"><path d="M 160.117188 7.167969 L 160.117188 30.394531 L 166.359375 36.710938 L 169.324219 36.710938 L 169.324219 0.648438 L 166.359375 0.648438 Z M 160.117188 7.167969 " clip-rule="nonzero"/></clipPath><clipPath id="beaa54891c"><path d="M 0.117188 0.648438 L 9.324219 0.648438 L 9.324219 36.722656 L 0.117188 36.722656 Z M 0.117188 0.648438 " clip-rule="nonzero"/></clipPath><clipPath id="861a338e5d"><path d="M 0.117188 7.167969 L 0.117188 30.394531 L 6.359375 36.710938 L 9.324219 36.710938 L 9.324219 0.648438 L 6.359375 0.648438 Z M 0.117188 7.167969 " clip-rule="nonzero"/></clipPath><clipPath id="3b3cfb4f34"><rect x="0" width="10" y="0" height="37"/></clipPath><clipPath id="ccefd1f6ec"><path d="M 170.800781 0.6875 L 204.964844 0.6875 L 204.964844 8.457031 L 170.800781 8.457031 Z M 170.800781 0.6875 " clip-rule="nonzero"/></clipPath><clipPath id="848d3415ea"><path d="M 0.800781 0.6875 L 34.964844 0.6875 L 34.964844 8.457031 L 0.800781 8.457031 Z M 0.800781 0.6875 " clip-rule="nonzero"/></clipPath><clipPath id="b238a7a3a7"><rect x="0" width="35" y="0" height="9"/></clipPath><clipPath id="7d94db7790"><path d="M 170.929688 28.804688 L 205.097656 28.804688 L 205.097656 36.570312 L 170.929688 36.570312 Z M 170.929688 28.804688 " clip-rule="nonzero"/></clipPath><clipPath id="f82a5c71c5"><path d="M 0.929688 0.804688 L 35.097656 0.804688 L 35.097656 8.570312 L 0.929688 8.570312 Z M 0.929688 0.804688 " clip-rule="nonzero"/></clipPath><clipPath id="ea17f559ff"><rect x="0" width="36" y="0" height="9"/></clipPath><clipPath id="4cbbe8f484"><path d="M 213.773438 0.648438 L 235.636719 0.648438 L 235.636719 36.714844 L 213.773438 36.714844 Z M 213.773438 0.648438 " clip-rule="nonzero"/></clipPath><clipPath id="65140b24d7"><path d="M 222.707031 25.480469 L 222.707031 11.835938 L 225.96875 8.578125 L 235.636719 8.578125 L 235.636719 0.648438 L 220.136719 0.648438 L 213.859375 7.171875 L 213.859375 30.433594 L 220.136719 36.710938 L 235.636719 36.710938 L 235.636719 29.046875 L 226.269531 29.046875 Z M 222.707031 25.480469 " clip-rule="nonzero"/></clipPath><clipPath id="f25d2322f5"><path d="M 0.773438 0.648438 L 22.636719 0.648438 L 22.636719 36.714844 L 0.773438 36.714844 Z M 0.773438 0.648438 " clip-rule="nonzero"/></clipPath><clipPath id="4a7c3a9c32"><path d="M 9.707031 25.480469 L 9.707031 11.835938 L 12.96875 8.578125 L 22.636719 8.578125 L 22.636719 0.648438 L 7.136719 0.648438 L 0.859375 7.171875 L 0.859375 30.433594 L 7.136719 36.710938 L 22.636719 36.710938 L 22.636719 29.046875 L 13.269531 29.046875 Z M 9.707031 25.480469 " clip-rule="nonzero"/></clipPath><clipPath id="80e0a059a6"><rect x="0" width="23" y="0" height="37"/></clipPath><clipPath id="bde32aba26"><path d="M 237.347656 0.648438 L 259.210938 0.648438 L 259.210938 36.71875 L 237.347656 36.71875 Z M 237.347656 0.648438 " clip-rule="nonzero"/></clipPath><clipPath id="445191cd24"><path d="M 237.429688 0.648438 L 237.429688 8.574219 L 247.101562 8.574219 L 250.363281 11.835938 L 250.363281 25.484375 L 246.796875 29.042969 L 237.429688 29.042969 L 237.429688 36.710938 L 252.933594 36.710938 L 259.210938 30.429688 L 259.210938 7.167969 L 252.933594 0.648438 Z M 237.429688 0.648438 " clip-rule="nonzero"/></clipPath><clipPath id="9b3b1b1290"><path d="M 0.394531 0.648438 L 22.210938 0.648438 L 22.210938 36.71875 L 0.394531 36.71875 Z M 0.394531 0.648438 " clip-rule="nonzero"/></clipPath><clipPath id="d1e7b14727"><path d="M 0.429688 0.648438 L 0.429688 8.574219 L 10.101562 8.574219 L 13.363281 11.835938 L 13.363281 25.484375 L 9.796875 29.042969 L 0.429688 29.042969 L 0.429688 36.710938 L 15.933594 36.710938 L 22.210938 30.429688 L 22.210938 7.167969 L 15.933594 0.648438 Z M 0.429688 0.648438 " clip-rule="nonzero"/></clipPath><clipPath id="d975913ce9"><rect x="0" width="23" y="0" height="37"/></clipPath><clipPath id="cf209dbfb0"><path d="M 268.601562 0.777344 L 290.464844 0.777344 L 290.464844 36.847656 L 268.601562 36.847656 Z M 268.601562 0.777344 " clip-rule="nonzero"/></clipPath><clipPath id="7c883cc389"><path d="M 277.535156 25.613281 L 277.535156 11.96875 L 280.796875 8.707031 L 290.464844 8.707031 L 290.464844 0.777344 L 274.964844 0.777344 L 268.683594 7.300781 L 268.683594 30.5625 L 274.964844 36.839844 L 290.464844 36.839844 L 290.464844 29.175781 L 281.097656 29.175781 Z M 277.535156 25.613281 " clip-rule="nonzero"/></clipPath><clipPath id="f15cb03886"><path d="M 0.601562 0.777344 L 22.464844 0.777344 L 22.464844 36.847656 L 0.601562 36.847656 Z M 0.601562 0.777344 " clip-rule="nonzero"/></clipPath><clipPath id="84afad5dc1"><path d="M 9.535156 25.613281 L 9.535156 11.96875 L 12.796875 8.707031 L 22.464844 8.707031 L 22.464844 0.777344 L 6.964844 0.777344 L 0.683594 7.300781 L 0.683594 30.5625 L 6.964844 36.839844 L 22.464844 36.839844 L 22.464844 29.175781 L 13.097656 29.175781 Z M 9.535156 25.613281 " clip-rule="nonzero"/></clipPath><clipPath id="daeffe1b57"><rect x="0" width="23" y="0" height="37"/></clipPath><clipPath id="990bfb2f8f"><path d="M 292.171875 0.777344 L 314.035156 0.777344 L 314.035156 36.847656 L 292.171875 36.847656 Z M 292.171875 0.777344 " clip-rule="nonzero"/></clipPath><clipPath id="6c477e2ebe"><path d="M 292.257812 0.777344 L 292.257812 8.707031 L 301.925781 8.707031 L 305.183594 11.96875 L 305.183594 25.613281 L 301.625 29.175781 L 292.257812 29.175781 L 292.257812 36.839844 L 307.757812 36.839844 L 314.035156 30.5625 L 314.035156 7.300781 L 307.757812 0.777344 Z M 292.257812 0.777344 " clip-rule="nonzero"/></clipPath><clipPath id="7ed301e6f2"><path d="M 0.171875 0.777344 L 22.035156 0.777344 L 22.035156 36.847656 L 0.171875 36.847656 Z M 0.171875 0.777344 " clip-rule="nonzero"/></clipPath><clipPath id="6b74c43d7c"><path d="M 0.257812 0.777344 L 0.257812 8.707031 L 9.925781 8.707031 L 13.183594 11.96875 L 13.183594 25.613281 L 9.625 29.175781 L 0.257812 29.175781 L 0.257812 36.839844 L 15.757812 36.839844 L 22.035156 30.5625 L 22.035156 7.300781 L 15.757812 0.777344 Z M 0.257812 0.777344 " clip-rule="nonzero"/></clipPath><clipPath id="0db7fb6c6b"><rect x="0" width="23" y="0" height="37"/></clipPath><clipPath id="eb3da11288"><path d="M 106.4375 0.710938 L 115.675781 0.710938 L 115.675781 36.777344 L 106.4375 36.777344 Z M 106.4375 0.710938 " clip-rule="nonzero"/></clipPath><clipPath id="a761f8d290"><path d="M 0.4375 0.710938 L 9.675781 0.710938 L 9.675781 36.777344 L 0.4375 36.777344 Z M 0.4375 0.710938 " clip-rule="nonzero"/></clipPath><clipPath id="8ccb6f1c61"><rect x="0" width="10" y="0" height="37"/></clipPath><clipPath id="831a4e9710"><path d="M 117.25 0.6875 L 151.417969 0.6875 L 151.417969 8.457031 L 117.25 8.457031 Z M 117.25 0.6875 " clip-rule="nonzero"/></clipPath><clipPath id="4b07173744"><path d="M 0.25 0.6875 L 34.417969 0.6875 L 34.417969 8.457031 L 0.25 8.457031 Z M 0.25 0.6875 " clip-rule="nonzero"/></clipPath><clipPath id="018f12493f"><rect x="0" width="35" y="0" height="9"/></clipPath><clipPath id="5eb030070e"><path d="M 117.25 28.804688 L 151.414062 28.804688 L 151.414062 36.570312 L 117.25 36.570312 Z M 117.25 28.804688 " clip-rule="nonzero"/></clipPath><clipPath id="e4e96ce538"><path d="M 0.25 0.804688 L 34.414062 0.804688 L 34.414062 8.570312 L 0.25 8.570312 Z M 0.25 0.804688 " clip-rule="nonzero"/></clipPath><clipPath id="fa885a3720"><rect x="0" width="35" y="0" height="9"/></clipPath><clipPath id="27b0968de7"><path d="M 116.929688 14.8125 L 149.195312 14.8125 L 149.195312 22.746094 L 116.929688 22.746094 Z M 116.929688 14.8125 " clip-rule="nonzero"/></clipPath><clipPath id="ee08b2a008"><path d="M 0.929688 0.8125 L 33.195312 0.8125 L 33.195312 8.746094 L 0.929688 8.746094 Z M 0.929688 0.8125 " clip-rule="nonzero"/></clipPath><clipPath id="1ca045852a"><rect x="0" width="34" y="0" height="9"/></clipPath><clipPath id="2f954c8568"><path d="M 80.976562 0.710938 L 98 0.710938 L 98 36.632812 L 80.976562 36.632812 Z M 80.976562 0.710938 " clip-rule="nonzero"/></clipPath><clipPath id="3ffb053fe9"><path d="M 52.59375 0.710938 L 80.597656 0.710938 L 80.597656 36.777344 L 52.59375 36.777344 Z M 52.59375 0.710938 " clip-rule="nonzero"/></clipPath><clipPath id="8652ca0f56"><path d="M 59.855469 0.710938 L 52.59375 36.777344 L 62.265625 36.777344 L 67.964844 8.542969 L 80.488281 8.542969 L 78.980469 0.710938 Z M 59.855469 0.710938 " clip-rule="nonzero"/></clipPath><clipPath id="66d554089f"><path d="M 0.59375 0.710938 L 28.597656 0.710938 L 28.597656 36.777344 L 0.59375 36.777344 Z M 0.59375 0.710938 " clip-rule="nonzero"/></clipPath><clipPath id="541dfda13f"><path d="M 7.855469 0.710938 L 0.59375 36.777344 L 10.265625 36.777344 L 15.964844 8.542969 L 28.488281 8.542969 L 26.980469 0.710938 Z M 7.855469 0.710938 " clip-rule="nonzero"/></clipPath><clipPath id="584869cfbc"><rect x="0" width="29" y="0" height="37"/></clipPath><clipPath id="2cc8a8ba2d"><path d="M 32.035156 0.710938 L 46.464844 0.710938 L 46.464844 36.816406 L 32.035156 36.816406 Z M 32.035156 0.710938 " clip-rule="nonzero"/></clipPath><clipPath id="873ab1c04b"><path d="M 32.089844 36.777344 L 40.417969 36.777344 L 46.464844 30.664062 L 46.464844 0.710938 L 32.089844 0.710938 Z M 32.089844 36.777344 " clip-rule="nonzero"/></clipPath><clipPath id="77e52c99db"><path d="M 0.0351562 0.710938 L 14.464844 0.710938 L 14.464844 36.816406 L 0.0351562 36.816406 Z M 0.0351562 0.710938 " clip-rule="nonzero"/></clipPath><clipPath id="bc66c0025e"><path d="M 0.0898438 36.777344 L 8.417969 36.777344 L 14.464844 30.664062 L 14.464844 0.710938 L 0.0898438 0.710938 Z M 0.0898438 36.777344 " clip-rule="nonzero"/></clipPath><clipPath id="b8168970af"><rect x="0" width="15" y="0" height="37"/></clipPath><clipPath id="b3ab26b414"><path d="M 0.3125 28.773438 L 30.742188 28.773438 L 30.742188 36.828125 L 0.3125 36.828125 Z M 0.3125 28.773438 " clip-rule="nonzero"/></clipPath><clipPath id="2b06151b24"><path d="M 6.871094 36.796875 L 30.710938 36.796875 L 30.710938 28.804688 L 0.34375 28.9375 Z M 6.871094 36.796875 " clip-rule="nonzero"/></clipPath><clipPath id="c5d6fea93b"><path d="M 0.3125 0.773438 L 30.738281 0.773438 L 30.738281 8.828125 L 0.3125 8.828125 Z M 0.3125 0.773438 " clip-rule="nonzero"/></clipPath><clipPath id="8fded2e0fa"><path d="M 6.871094 8.796875 L 30.710938 8.796875 L 30.710938 0.804688 L 0.34375 0.9375 Z M 6.871094 8.796875 " clip-rule="nonzero"/></clipPath><clipPath id="f5af8cdf24"><rect x="0" width="31" y="0" height="9"/></clipPath><clipPath id="e5e6538734"><path d="M 0.78125 50.789062 L 313.972656 50.789062 L 313.972656 54.238281 L 0.78125 54.238281 Z M 0.78125 50.789062 " clip-rule="nonzero"/></clipPath><clipPath id="c13a83b82c"><path d="M 0.78125 0.789062 L 313.972656 0.789062 L 313.972656 4.238281 L 0.78125 4.238281 Z M 0.78125 0.789062 " clip-rule="nonzero"/></clipPath><clipPath id="2964f3e989"><rect x="0" width="314" y="0" height="5"/></clipPath><clipPath id="3a77b4f850"><rect x="0" width="315" y="0" height="106"/></clipPath></defs><g transform="matrix(1, 0, 0, 1, 15, 63)"><g clip-path="url(#3a77b4f850)"><g clip-path="url(#8d759db8bd)"><g clip-path="url(#9e2b51d10c)"><g transform="matrix(1, 0, 0, 1, 289, 65)"><g clip-path="url(#5bbbe88158)"><g clip-path="url(#3230c23e2d)"><g clip-path="url(#55ccf076a9)"><path fill="#ffffff" d="M 0.480469 0.472656 L 24.5 0.472656 L 24.5 40.347656 L 0.480469 40.347656 Z M 0.480469 0.472656 " fill-opacity="1" fill-rule="nonzero"/></g></g></g></g></g></g><g clip-path="url(#62876d8a36)"><g clip-path="url(#0efc911934)"><g transform="matrix(1, 0, 0, 1, 262, 65)"><g clip-path="url(#6d3e9127b2)"><g clip-path="url(#6a0b657244)"><g clip-path="url(#7c27bedff0)"><path fill="#ffffff" d="M 0.929688 0.472656 L 28.980469 0.472656 L 28.980469 40.359375 L 0.929688 40.359375 Z M 0.929688 0.472656 " fill-opacity="1" fill-rule="nonzero"/></g></g></g></g></g></g><g clip-path="url(#8241f45a95)"><g clip-path="url(#cf4e3c1551)"><g transform="matrix(1, 0, 0, 1, 0, 65)"><g clip-path="url(#19a38daf22)"><g clip-path="url(#f463b1708d)"><g clip-path="url(#6b847cab39)"><path fill="#ffffff" d="M 0.644531 0.550781 L 53.46875 0.550781 L 53.46875 25.226562 L 0.644531 25.226562 Z M 0.644531 0.550781 " fill-opacity="1" fill-rule="nonzero"/></g></g></g></g></g></g><g clip-path="url(#467577b31b)"><g clip-path="url(#c0b9344860)"><g transform="matrix(1, 0, 0, 1, 0, 80)"><g clip-path="url(#ce3ad9ca74)"><g clip-path="url(#f5b3eca5a8)"><g clip-path="url(#a7793d28e7)"><path fill="#ffffff" d="M 0.722656 0.523438 L 53.449219 0.523438 L 53.449219 25.199219 L 0.722656 25.199219 Z M 0.722656 0.523438 " fill-opacity="1" fill-rule="nonzero"/></g></g></g></g></g></g><g clip-path="url(#efc8dcb47f)"><g clip-path="url(#564e11d131)"><g transform="matrix(1, 0, 0, 1, 134, 65)"><g clip-path="url(#04fc4f2889)"><g clip-path="url(#9aae85d6cf)"><g clip-path="url(#bfb2aa033b)"><path fill="#ffffff" d="M 0.0351562 0.550781 L 52.855469 0.550781 L 52.855469 25.226562 L 0.0351562 25.226562 Z M 0.0351562 0.550781 " fill-opacity="1" fill-rule="nonzero"/></g></g></g></g></g></g><g clip-path="url(#be74f2d4bf)"><g clip-path="url(#83f70aa3fb)"><g transform="matrix(1, 0, 0, 1, 134, 80)"><g clip-path="url(#f02df27477)"><g clip-path="url(#19e7c90cb4)"><g clip-path="url(#9453af3f8a)"><path fill="#ffffff" d="M 0.09375 0.523438 L 52.820312 0.523438 L 52.820312 25.199219 L 0.09375 25.199219 Z M 0.09375 0.523438 " fill-opacity="1" fill-rule="nonzero"/></g></g></g></g></g></g><g clip-path="url(#ff4ee926cb)"><g clip-path="url(#135cc29a3b)"><g transform="matrix(1, 0, 0, 1, 95, 65)"><g clip-path="url(#7fd37900ee)"><g clip-path="url(#978614b6b4)"><g clip-path="url(#22952df4b3)"><path fill="#ffffff" d="M 0.226562 0.609375 L 25.609375 0.609375 L 25.609375 40.46875 L 0.226562 40.46875 Z M 0.226562 0.609375 " fill-opacity="1" fill-rule="nonzero"/></g></g></g></g></g></g><g clip-path="url(#c96d32f424)"><g clip-path="url(#512966dba3)"><g transform="matrix(1, 0, 0, 1, 66, 65)"><g clip-path="url(#0999046221)"><g clip-path="url(#cf31cb3a06)"><g clip-path="url(#467de6de20)"><path fill="#ffffff" d="M 0.664062 0.699219 L 28.882812 0.699219 L 28.882812 40.597656 L 0.664062 40.597656 Z M 0.664062 0.699219 " fill-opacity="1" fill-rule="nonzero"/></g></g></g></g></g></g><g clip-path="url(#76f7af0a32)"><g clip-path="url(#07a35ef659)"><g transform="matrix(1, 0, 0, 1, 201, 65)"><g clip-path="url(#7cf94c341b)"><g clip-path="url(#d9cc6014e0)"><g clip-path="url(#d18ac7c2be)"><path fill="#ffffff" d="M 0.378906 0.472656 L 53.316406 0.472656 L 53.316406 40.332031 L 0.378906 40.332031 Z M 0.378906 0.472656 " fill-opacity="1" fill-rule="nonzero"/></g></g></g></g></g></g><g clip-path="url(#af09725ec2)"><g clip-path="url(#76aff0981e)"><g transform="matrix(1, 0, 0, 1, 160, -0.000000000000007105)"><g clip-path="url(#3b3cfb4f34)"><g clip-path="url(#beaa54891c)"><g clip-path="url(#861a338e5d)"><path fill="#ffffff" d="M 0.117188 0.648438 L 9.324219 0.648438 L 9.324219 36.722656 L 0.117188 36.722656 Z M 0.117188 0.648438 " fill-opacity="1" fill-rule="nonzero"/></g></g></g></g></g></g><g clip-path="url(#ccefd1f6ec)"><g transform="matrix(1, 0, 0, 1, 170, -0.000000000000007105)"><g clip-path="url(#b238a7a3a7)"><g clip-path="url(#848d3415ea)"><path fill="#ffffff" d="M 0.800781 0.6875 L 34.964844 0.6875 L 34.964844 8.457031 L 0.800781 8.457031 Z M 0.800781 0.6875 " fill-opacity="1" fill-rule="nonzero"/></g></g></g></g><g clip-path="url(#7d94db7790)"><g transform="matrix(1, 0, 0, 1, 170, 28)"><g clip-path="url(#ea17f559ff)"><g clip-path="url(#f82a5c71c5)"><path fill="#ffffff" d="M 0.929688 0.804688 L 35.105469 0.804688 L 35.105469 8.570312 L 0.929688 8.570312 Z M 0.929688 0.804688 " fill-opacity="1" fill-rule="nonzero"/></g></g></g></g><g clip-path="url(#4cbbe8f484)"><g clip-path="url(#65140b24d7)"><g transform="matrix(1, 0, 0, 1, 213, -0.000000000000007105)"><g clip-path="url(#80e0a059a6)"><g clip-path="url(#f25d2322f5)"><g clip-path="url(#4a7c3a9c32)"><path fill="#ffffff" d="M 0.859375 0.648438 L 22.636719 0.648438 L 22.636719 36.714844 L 0.859375 36.714844 Z M 0.859375 0.648438 " fill-opacity="1" fill-rule="nonzero"/></g></g></g></g></g></g><g clip-path="url(#bde32aba26)"><g clip-path="url(#445191cd24)"><g transform="matrix(1, 0, 0, 1, 237, -0.000000000000007105)"><g clip-path="url(#d975913ce9)"><g clip-path="url(#9b3b1b1290)"><g clip-path="url(#d1e7b14727)"><path fill="#ffffff" d="M 0.429688 0.648438 L 22.210938 0.648438 L 22.210938 36.71875 L 0.429688 36.71875 Z M 0.429688 0.648438 " fill-opacity="1" fill-rule="nonzero"/></g></g></g></g></g></g><g clip-path="url(#cf209dbfb0)"><g clip-path="url(#7c883cc389)"><g transform="matrix(1, 0, 0, 1, 268, -0.000000000000014211)"><g clip-path="url(#daeffe1b57)"><g clip-path="url(#f15cb03886)"><g clip-path="url(#84afad5dc1)"><path fill="#ffffff" d="M 0.683594 0.777344 L 22.464844 0.777344 L 22.464844 36.847656 L 0.683594 36.847656 Z M 0.683594 0.777344 " fill-opacity="1" fill-rule="nonzero"/></g></g></g></g></g></g><g clip-path="url(#990bfb2f8f)"><g clip-path="url(#6c477e2ebe)"><g transform="matrix(1, 0, 0, 1, 292, -0.000000000000014211)"><g clip-path="url(#0db7fb6c6b)"><g clip-path="url(#7ed301e6f2)"><g clip-path="url(#6b74c43d7c)"><path fill="#ffffff" d="M 0.257812 0.777344 L 22.035156 0.777344 L 22.035156 36.847656 L 0.257812 36.847656 Z M 0.257812 0.777344 " fill-opacity="1" fill-rule="nonzero"/></g></g></g></g></g></g><g clip-path="url(#eb3da11288)"><g transform="matrix(1, 0, 0, 1, 106, -0.000000000000007105)"><g clip-path="url(#8ccb6f1c61)"><g clip-path="url(#a761f8d290)"><path fill="#ffffff" d="M 0.4375 0.710938 L 9.675781 0.710938 L 9.675781 36.773438 L 0.4375 36.773438 Z M 0.4375 0.710938 " fill-opacity="1" fill-rule="nonzero"/></g></g></g></g><g clip-path="url(#831a4e9710)"><g transform="matrix(1, 0, 0, 1, 117, -0.000000000000007105)"><g clip-path="url(#018f12493f)"><g clip-path="url(#4b07173744)"><path fill="#ffffff" d="M 0.25 0.6875 L 34.410156 0.6875 L 34.410156 8.457031 L 0.25 8.457031 Z M 0.25 0.6875 " fill-opacity="1" fill-rule="nonzero"/></g></g></g></g><g clip-path="url(#5eb030070e)"><g transform="matrix(1, 0, 0, 1, 117, 28)"><g clip-path="url(#fa885a3720)"><g clip-path="url(#e4e96ce538)"><path fill="#ffffff" d="M 0.25 0.804688 L 34.425781 0.804688 L 34.425781 8.570312 L 0.25 8.570312 Z M 0.25 0.804688 " fill-opacity="1" fill-rule="nonzero"/></g></g></g></g><g clip-path="url(#27b0968de7)"><g transform="matrix(1, 0, 0, 1, 116, 14)"><g clip-path="url(#1ca045852a)"><g clip-path="url(#ee08b2a008)"><path fill="#ffffff" d="M 0.929688 0.8125 L 33.203125 0.8125 L 33.203125 8.75 L 0.929688 8.75 Z M 0.929688 0.8125 " fill-opacity="1" fill-rule="nonzero"/></g></g></g></g><g clip-path="url(#2f954c8568)"><path fill="#ffffff" d="M 80.976562 0.722656 L 88.15625 36.308594 L 97.824219 36.308594 L 90.5625 0.71875 Z M 80.976562 0.722656 " fill-opacity="1" fill-rule="nonzero"/></g><g clip-path="url(#3ffb053fe9)"><g clip-path="url(#8652ca0f56)"><g transform="matrix(1, 0, 0, 1, 52, -0.000000000000007105)"><g clip-path="url(#584869cfbc)"><g clip-path="url(#66d554089f)"><g clip-path="url(#541dfda13f)"><path fill="#ffffff" d="M 0.59375 0.710938 L 28.488281 0.710938 L 28.488281 36.777344 L 0.59375 36.777344 Z M 0.59375 0.710938 " fill-opacity="1" fill-rule="nonzero"/></g></g></g></g></g></g><g clip-path="url(#2cc8a8ba2d)"><g clip-path="url(#873ab1c04b)"><g transform="matrix(1, 0, 0, 1, 32, -0.000000000000007105)"><g clip-path="url(#b8168970af)"><g clip-path="url(#77e52c99db)"><g clip-path="url(#bc66c0025e)"><path fill="#ffffff" d="M 0.0898438 0.710938 L 14.464844 0.710938 L 14.464844 36.761719 L 0.0898438 36.761719 Z M 0.0898438 0.710938 " fill-opacity="1" fill-rule="nonzero"/></g></g></g></g></g></g><g clip-path="url(#b3ab26b414)"><g clip-path="url(#2b06151b24)"><g transform="matrix(1, 0, 0, 1, -0.000000000000001776, 28)"><g clip-path="url(#f5af8cdf24)"><g clip-path="url(#c5d6fea93b)"><g clip-path="url(#8fded2e0fa)"><path fill="#ffffff" d="M 0.34375 0.804688 L 30.710938 0.804688 L 30.710938 8.796875 L 0.34375 8.796875 Z M 0.34375 0.804688 " fill-opacity="1" fill-rule="nonzero"/></g></g></g></g></g></g><g clip-path="url(#e5e6538734)"><g transform="matrix(1, 0, 0, 1, -0.000000000000001776, 50)"><g clip-path="url(#2964f3e989)"><g clip-path="url(#c13a83b82c)"><path fill="#d10010" d="M 0.78125 0.789062 L 313.964844 0.789062 L 313.964844 4.238281 L 0.78125 4.238281 Z M 0.78125 0.789062 " fill-opacity="1" fill-rule="nonzero"/></g></g></g></g></g></g></svg>