<svg xmlns="http://www.w3.org/2000/svg" xmlns:xlink="http://www.w3.org/1999/xlink" width="850" zoomAndPan="magnify" viewBox="0 0 637.5 225" height="300" preserveAspectRatio="xMidYMid meet" version="1.0"><defs><clipPath id="517471f00a"><path d="M 563 137.382812 L 610.488281 137.382812 L 610.488281 215.769531 L 563 215.769531 Z M 563 137.382812 " clip-rule="nonzero"/></clipPath><clipPath id="b3779a3d8f"><path d="M 581.289062 137.386719 L 563.089844 137.386719 L 591.804688 215.199219 L 591.804688 215.742188 L 610.308594 215.742188 L 581.589844 137.925781 Z M 581.289062 137.386719 " clip-rule="nonzero"/></clipPath><clipPath id="ddabc0b2b8"><path d="M 0.078125 0.382812 L 47.320312 0.382812 L 47.320312 78.769531 L 0.078125 78.769531 Z M 0.078125 0.382812 " clip-rule="nonzero"/></clipPath><clipPath id="be305ec19f"><path d="M 18.289062 0.386719 L 0.0898438 0.386719 L 28.804688 78.199219 L 28.804688 78.742188 L 47.308594 78.742188 L 18.589844 0.925781 Z M 18.289062 0.386719 " clip-rule="nonzero"/></clipPath><clipPath id="ad1e327422"><rect x="0" width="48" y="0" height="79"/></clipPath><clipPath id="6b1128e0f3"><path d="M 510.898438 137.382812 L 566.257812 137.382812 L 566.257812 215.789062 L 510.898438 215.789062 Z M 510.898438 137.382812 " clip-rule="nonzero"/></clipPath><clipPath id="f32027ccf5"><path d="M 533.210938 137.6875 L 510.902344 215.742188 L 527.824219 215.742188 L 545.300781 158.003906 L 566.042969 158.003906 L 558.605469 137.386719 Z M 533.210938 137.6875 " clip-rule="nonzero"/></clipPath><clipPath id="75a4823ec2"><path d="M 0.898438 0.382812 L 56.195312 0.382812 L 56.195312 78.789062 L 0.898438 78.789062 Z M 0.898438 0.382812 " clip-rule="nonzero"/></clipPath><clipPath id="0b3ac9a4d0"><path d="M 23.210938 0.6875 L 0.902344 78.742188 L 17.824219 78.742188 L 35.300781 21.003906 L 56.042969 21.003906 L 48.605469 0.386719 Z M 23.210938 0.6875 " clip-rule="nonzero"/></clipPath><clipPath id="bb01909a14"><rect x="0" width="57" y="0" height="79"/></clipPath><clipPath id="9af7ccd4f8"><path d="M 10.644531 137.664062 L 114.667969 137.664062 L 114.667969 186.359375 L 10.644531 186.359375 Z M 10.644531 137.664062 " clip-rule="nonzero"/></clipPath><clipPath id="f32937c6e8"><path d="M 27.511719 175.050781 L 27.265625 174.75 L 27.265625 159.890625 L 35.964844 150.105469 L 89 150.105469 L 114.613281 176.929688 L 114.613281 150.648438 L 101.808594 137.964844 L 22.613281 137.664062 L 10.835938 150.648438 L 10.835938 167.746094 L 27.511719 186.171875 Z M 27.511719 175.050781 " clip-rule="nonzero"/></clipPath><clipPath id="cedfe4f5cf"><path d="M 0.792969 0.664062 L 104.628906 0.664062 L 104.628906 49.183594 L 0.792969 49.183594 Z M 0.792969 0.664062 " clip-rule="nonzero"/></clipPath><clipPath id="b841ff81f9"><path d="M 17.511719 38.050781 L 17.265625 37.75 L 17.265625 22.890625 L 25.964844 13.105469 L 79 13.105469 L 104.613281 39.929688 L 104.613281 13.648438 L 91.808594 0.964844 L 12.613281 0.664062 L 0.835938 13.648438 L 0.835938 30.746094 L 17.511719 49.171875 Z M 17.511719 38.050781 " clip-rule="nonzero"/></clipPath><clipPath id="0133b42dc6"><rect x="0" width="105" y="0" height="50"/></clipPath><clipPath id="96dad651b7"><path d="M 11.546875 167.09375 L 115.378906 167.09375 L 115.378906 215.597656 L 11.546875 215.597656 Z M 11.546875 167.09375 " clip-rule="nonzero"/></clipPath><clipPath id="f78277f9ef"><path d="M 98.710938 193.78125 L 98.472656 193.78125 L 98.472656 194.320312 L 89.277344 202.914062 L 36.496094 202.914062 L 11.734375 174.367188 L 11.734375 202.675781 L 24.480469 215.597656 L 102.257812 215.597656 L 115.304688 202.375 L 115.304688 183.804688 L 98.710938 167.09375 Z M 98.710938 193.78125 " clip-rule="nonzero"/></clipPath><clipPath id="d510fb9d78"><path d="M 0.546875 0.09375 L 104.347656 0.09375 L 104.347656 48.597656 L 0.546875 48.597656 Z M 0.546875 0.09375 " clip-rule="nonzero"/></clipPath><clipPath id="1b82ca61ec"><path d="M 87.710938 26.78125 L 87.472656 26.78125 L 87.472656 27.320312 L 78.277344 35.914062 L 25.496094 35.914062 L 0.734375 7.367188 L 0.734375 35.675781 L 13.480469 48.597656 L 91.257812 48.597656 L 104.304688 35.375 L 104.304688 16.804688 L 87.710938 0.09375 Z M 87.710938 26.78125 " clip-rule="nonzero"/></clipPath><clipPath id="9cd2ccc287"><rect x="0" width="105" y="0" height="49"/></clipPath><clipPath id="16403c78c2"><path d="M 273.050781 137.664062 L 377 137.664062 L 377 186.359375 L 273.050781 186.359375 Z M 273.050781 137.664062 " clip-rule="nonzero"/></clipPath><clipPath id="5867d74001"><path d="M 289.964844 175.050781 L 289.71875 174.75 L 289.71875 159.890625 L 298.421875 150.105469 L 351.21875 150.105469 L 376.886719 176.929688 L 376.886719 150.648438 L 364.324219 137.964844 L 285.132812 137.664062 L 273.050781 150.648438 L 273.050781 167.746094 L 289.964844 186.171875 Z M 289.964844 175.050781 " clip-rule="nonzero"/></clipPath><clipPath id="b54ee0c9ae"><path d="M 0.0507812 0.664062 L 103.984375 0.664062 L 103.984375 49.183594 L 0.0507812 49.183594 Z M 0.0507812 0.664062 " clip-rule="nonzero"/></clipPath><clipPath id="cb0ad05934"><path d="M 16.964844 38.050781 L 16.71875 37.75 L 16.71875 22.890625 L 25.421875 13.105469 L 78.21875 13.105469 L 103.886719 39.929688 L 103.886719 13.648438 L 91.324219 0.964844 L 12.132812 0.664062 L 0.0507812 13.648438 L 0.0507812 30.746094 L 16.964844 49.171875 Z M 16.964844 38.050781 " clip-rule="nonzero"/></clipPath><clipPath id="521dbaa94a"><rect x="0" width="104" y="0" height="50"/></clipPath><clipPath id="04004d673a"><path d="M 273.914062 167.09375 L 377.558594 167.09375 L 377.558594 215.597656 L 273.914062 215.597656 Z M 273.914062 167.09375 " clip-rule="nonzero"/></clipPath><clipPath id="b15db34984"><path d="M 361.132812 193.78125 L 360.894531 193.78125 L 360.894531 194.320312 L 351.695312 202.914062 L 298.921875 202.914062 L 273.917969 174.367188 L 273.917969 202.675781 L 286.714844 215.597656 L 364.742188 215.597656 L 377.484375 202.375 L 377.484375 183.804688 L 361.132812 167.09375 Z M 361.132812 193.78125 " clip-rule="nonzero"/></clipPath><clipPath id="abaafa577d"><path d="M 0.914062 0.09375 L 104.558594 0.09375 L 104.558594 48.597656 L 0.914062 48.597656 Z M 0.914062 0.09375 " clip-rule="nonzero"/></clipPath><clipPath id="61db3fed71"><path d="M 88.132812 26.78125 L 87.894531 26.78125 L 87.894531 27.320312 L 78.695312 35.914062 L 25.921875 35.914062 L 0.917969 7.367188 L 0.917969 35.675781 L 13.714844 48.597656 L 91.742188 48.597656 L 104.484375 35.375 L 104.484375 16.804688 L 88.132812 0.09375 Z M 88.132812 26.78125 " clip-rule="nonzero"/></clipPath><clipPath id="3e290e12bd"><rect x="0" width="105" y="0" height="49"/></clipPath><clipPath id="f309c6e933"><path d="M 196.785156 137.777344 L 246.875 137.777344 L 246.875 216.324219 L 196.785156 216.324219 Z M 196.785156 137.777344 " clip-rule="nonzero"/></clipPath><clipPath id="696be05341"><path d="M 206.691406 137.78125 L 196.789062 191.632812 L 200.808594 215.351562 L 207.714844 215.589844 L 217.679688 158.253906 L 230.113281 158.253906 L 230.113281 216.132812 L 246.683594 216.132812 L 246.683594 150.984375 L 235.214844 137.78125 Z M 206.691406 137.78125 " clip-rule="nonzero"/></clipPath><clipPath id="7c11e329eb"><path d="M 0.785156 0.777344 L 50.765625 0.777344 L 50.765625 79.160156 L 0.785156 79.160156 Z M 0.785156 0.777344 " clip-rule="nonzero"/></clipPath><clipPath id="c4fbf856a2"><path d="M 10.691406 0.78125 L 0.789062 54.632812 L 4.808594 78.351562 L 11.714844 78.589844 L 21.679688 21.253906 L 34.113281 21.253906 L 34.113281 79.132812 L 50.683594 79.132812 L 50.683594 13.984375 L 39.214844 0.78125 Z M 10.691406 0.78125 " clip-rule="nonzero"/></clipPath><clipPath id="ea0590a37d"><rect x="0" width="51" y="0" height="80"/></clipPath><clipPath id="ac9c21ef45"><path d="M 140.613281 137.953125 L 196.296875 137.953125 L 196.296875 216.390625 L 140.613281 216.390625 Z M 140.613281 137.953125 " clip-rule="nonzero"/></clipPath><clipPath id="6a98764070"><path d="M 151.875 137.957031 L 140.613281 151.449219 L 140.613281 216.007812 L 157.476562 216.007812 L 157.476562 158.492188 L 170.007812 158.492188 L 179.222656 216.308594 L 196.082031 216.308594 L 182.289062 137.957031 Z M 151.875 137.957031 " clip-rule="nonzero"/></clipPath><clipPath id="ee3d102691"><path d="M 0.613281 0.953125 L 56.167969 0.953125 L 56.167969 79.390625 L 0.613281 79.390625 Z M 0.613281 0.953125 " clip-rule="nonzero"/></clipPath><clipPath id="55b9304112"><path d="M 11.875 0.957031 L 0.613281 14.449219 L 0.613281 79.007812 L 17.476562 79.007812 L 17.476562 21.492188 L 30.007812 21.492188 L 39.222656 79.308594 L 56.082031 79.308594 L 42.289062 0.957031 Z M 11.875 0.957031 " clip-rule="nonzero"/></clipPath><clipPath id="393c9a4ddb"><rect x="0" width="57" y="0" height="80"/></clipPath><clipPath id="78205e9025"><path d="M 389.152344 137.382812 L 493.527344 137.382812 L 493.527344 216 L 389.152344 216 Z M 389.152344 137.382812 " clip-rule="nonzero"/></clipPath><clipPath id="0a515c3c27"><path d="M 459.167969 137.386719 L 476.339844 151.472656 L 476.339844 194.042969 L 464.003906 202.988281 L 406.566406 202.988281 L 406.566406 150.382812 L 466.84375 150.382812 L 451.1875 137.386719 L 389.152344 137.386719 L 389.152344 215.742188 L 480.933594 215.742188 L 493.265625 202.742188 L 493.265625 150.382812 L 477.609375 137.386719 Z M 459.167969 137.386719 " clip-rule="nonzero"/></clipPath><clipPath id="9b1cf234ac"><path d="M 0.152344 0.382812 L 104.292969 0.382812 L 104.292969 78.917969 L 0.152344 78.917969 Z M 0.152344 0.382812 " clip-rule="nonzero"/></clipPath><clipPath id="f295ccc329"><path d="M 70.167969 0.386719 L 87.339844 14.472656 L 87.339844 57.042969 L 75.003906 65.988281 L 17.566406 65.988281 L 17.566406 13.382812 L 77.84375 13.382812 L 62.1875 0.386719 L 0.152344 0.386719 L 0.152344 78.742188 L 91.933594 78.742188 L 104.265625 65.742188 L 104.265625 13.382812 L 88.609375 0.386719 Z M 70.167969 0.386719 " clip-rule="nonzero"/></clipPath><clipPath id="e485127302"><rect x="0" width="105" y="0" height="79"/></clipPath><clipPath id="432da6f0d7"><path d="M 324.320312 10.078125 L 342.417969 10.078125 L 342.417969 80.996094 L 324.320312 80.996094 Z M 324.320312 10.078125 " clip-rule="nonzero"/></clipPath><clipPath id="2b58d5a33e"><path d="M 324.320312 22.898438 L 324.320312 68.550781 L 336.585938 80.972656 L 342.417969 80.972656 L 342.417969 10.078125 L 336.585938 10.078125 Z M 324.320312 22.898438 " clip-rule="nonzero"/></clipPath><clipPath id="7156609be5"><path d="M 0.320312 0.078125 L 18.417969 0.078125 L 18.417969 70.996094 L 0.320312 70.996094 Z M 0.320312 0.078125 " clip-rule="nonzero"/></clipPath><clipPath id="4763134973"><path d="M 0.320312 12.898438 L 0.320312 58.550781 L 12.585938 70.972656 L 18.417969 70.972656 L 18.417969 0.078125 L 12.585938 0.078125 Z M 0.320312 12.898438 " clip-rule="nonzero"/></clipPath><clipPath id="3cbd7cfe7f"><rect x="0" width="19" y="0" height="71"/></clipPath><clipPath id="b55c331d26"><path d="M 345.320312 10.1875 L 412.480469 10.1875 L 412.480469 25.457031 L 345.320312 25.457031 Z M 345.320312 10.1875 " clip-rule="nonzero"/></clipPath><clipPath id="c20ab59f90"><path d="M 0.320312 0.1875 L 67.480469 0.1875 L 67.480469 15.457031 L 0.320312 15.457031 Z M 0.320312 0.1875 " clip-rule="nonzero"/></clipPath><clipPath id="24d52afa0d"><rect x="0" width="68" y="0" height="16"/></clipPath><clipPath id="8fc50f8092"><path d="M 345.574219 65.457031 L 412.734375 65.457031 L 412.734375 80.722656 L 345.574219 80.722656 Z M 345.574219 65.457031 " clip-rule="nonzero"/></clipPath><clipPath id="f9865c6687"><path d="M 0.574219 0.457031 L 67.734375 0.457031 L 67.734375 15.722656 L 0.574219 15.722656 Z M 0.574219 0.457031 " clip-rule="nonzero"/></clipPath><clipPath id="591bd8b9be"><rect x="0" width="68" y="0" height="16"/></clipPath><clipPath id="830ca0ce8a"><path d="M 412.796875 9.949219 L 455.773438 9.949219 L 455.773438 80.851562 L 412.796875 80.851562 Z M 412.796875 9.949219 " clip-rule="nonzero"/></clipPath><clipPath id="398f9b7c75"><path d="M 430.359375 58.769531 L 430.359375 31.949219 L 436.773438 25.542969 L 455.773438 25.542969 L 455.773438 9.957031 L 425.304688 9.953125 L 412.964844 22.773438 L 412.964844 68.5 L 425.304688 80.847656 L 455.773438 80.847656 L 455.773438 65.777344 L 437.363281 65.777344 Z M 430.359375 58.769531 " clip-rule="nonzero"/></clipPath><clipPath id="1e706b9dc1"><path d="M 0.957031 0.949219 L 43.773438 0.949219 L 43.773438 71.851562 L 0.957031 71.851562 Z M 0.957031 0.949219 " clip-rule="nonzero"/></clipPath><clipPath id="fc742d6dbe"><path d="M 18.359375 49.769531 L 18.359375 22.949219 L 24.773438 16.542969 L 43.773438 16.542969 L 43.773438 0.957031 L 13.304688 0.953125 L 0.964844 13.773438 L 0.964844 59.5 L 13.304688 71.847656 L 43.773438 71.847656 L 43.773438 56.777344 L 25.363281 56.777344 Z M 18.359375 49.769531 " clip-rule="nonzero"/></clipPath><clipPath id="6f81614d38"><rect x="0" width="44" y="0" height="72"/></clipPath><clipPath id="f3c55b127b"><path d="M 459.136719 9.949219 L 502.117188 9.949219 L 502.117188 80.863281 L 459.136719 80.863281 Z M 459.136719 9.949219 " clip-rule="nonzero"/></clipPath><clipPath id="186928c0a5"><path d="M 459.300781 9.953125 L 459.300781 25.535156 L 478.308594 25.535156 L 484.722656 31.945312 L 484.722656 58.773438 L 477.71875 65.769531 L 459.300781 65.769531 L 459.300781 80.84375 L 489.773438 80.84375 L 502.117188 68.5 L 502.117188 22.769531 L 489.773438 9.953125 Z M 459.300781 9.953125 " clip-rule="nonzero"/></clipPath><clipPath id="16ee0f0532"><path d="M 0.238281 0.949219 L 43.117188 0.949219 L 43.117188 71.863281 L 0.238281 71.863281 Z M 0.238281 0.949219 " clip-rule="nonzero"/></clipPath><clipPath id="8b2b0f6f2a"><path d="M 0.300781 0.953125 L 0.300781 16.535156 L 19.308594 16.535156 L 25.722656 22.945312 L 25.722656 49.773438 L 18.71875 56.769531 L 0.300781 56.769531 L 0.300781 71.84375 L 30.773438 71.84375 L 43.117188 59.5 L 43.117188 13.769531 L 30.773438 0.953125 Z M 0.300781 0.953125 " clip-rule="nonzero"/></clipPath><clipPath id="f80c06bb12"><rect x="0" width="44" y="0" height="72"/></clipPath><clipPath id="bff13ddb12"><path d="M 520.574219 10.207031 L 563.554688 10.207031 L 563.554688 81.117188 L 520.574219 81.117188 Z M 520.574219 10.207031 " clip-rule="nonzero"/></clipPath><clipPath id="9efc98bc0a"><path d="M 538.136719 59.027344 L 538.136719 32.203125 L 544.546875 25.792969 L 563.550781 25.792969 L 563.550781 10.207031 L 533.085938 10.207031 L 520.738281 23.027344 L 520.738281 68.757812 L 533.085938 81.101562 L 563.550781 81.101562 L 563.550781 66.027344 L 545.136719 66.027344 Z M 538.136719 59.027344 " clip-rule="nonzero"/></clipPath><clipPath id="674c97b69b"><path d="M 0.632812 0.207031 L 43.554688 0.207031 L 43.554688 71.117188 L 0.632812 71.117188 Z M 0.632812 0.207031 " clip-rule="nonzero"/></clipPath><clipPath id="fa7b0cd76a"><path d="M 18.136719 49.027344 L 18.136719 22.203125 L 24.546875 15.792969 L 43.550781 15.792969 L 43.550781 0.207031 L 13.085938 0.207031 L 0.738281 13.027344 L 0.738281 58.757812 L 13.085938 71.101562 L 43.550781 71.101562 L 43.550781 56.027344 L 25.136719 56.027344 Z M 18.136719 49.027344 " clip-rule="nonzero"/></clipPath><clipPath id="e88f3561d8"><rect x="0" width="44" y="0" height="72"/></clipPath><clipPath id="39bcc727ab"><path d="M 567 10.207031 L 609.890625 10.207031 L 609.890625 81.117188 L 567 81.117188 Z M 567 10.207031 " clip-rule="nonzero"/></clipPath><clipPath id="24c6685e7f"><path d="M 567.078125 10.207031 L 567.078125 25.792969 L 586.085938 25.792969 L 592.492188 32.203125 L 592.492188 59.027344 L 585.492188 66.027344 L 567.078125 66.027344 L 567.078125 81.101562 L 597.546875 81.101562 L 609.890625 68.757812 L 609.890625 23.027344 L 597.546875 10.207031 Z M 567.078125 10.207031 " clip-rule="nonzero"/></clipPath><clipPath id="6a2495b608"><path d="M 0 0.207031 L 42.890625 0.207031 L 42.890625 71.117188 L 0 71.117188 Z M 0 0.207031 " clip-rule="nonzero"/></clipPath><clipPath id="d86e3a8498"><path d="M 0.078125 0.207031 L 0.078125 15.792969 L 19.085938 15.792969 L 25.492188 22.203125 L 25.492188 49.027344 L 18.492188 56.027344 L 0.078125 56.027344 L 0.078125 71.101562 L 30.546875 71.101562 L 42.890625 58.757812 L 42.890625 13.027344 L 30.546875 0.207031 Z M 0.078125 0.207031 " clip-rule="nonzero"/></clipPath><clipPath id="3a9a7e0d8e"><rect x="0" width="43" y="0" height="72"/></clipPath><clipPath id="17751a3dfb"><path d="M 218.792969 10.203125 L 236.960938 10.203125 L 236.960938 81.101562 L 218.792969 81.101562 Z M 218.792969 10.203125 " clip-rule="nonzero"/></clipPath><clipPath id="7f9a7fd7e4"><path d="M 0.792969 0.203125 L 18.960938 0.203125 L 18.960938 71.101562 L 0.792969 71.101562 Z M 0.792969 0.203125 " clip-rule="nonzero"/></clipPath><clipPath id="9890927123"><rect x="0" width="19" y="0" height="72"/></clipPath><clipPath id="d32d6c1437"><path d="M 240.050781 10.1875 L 307.214844 10.1875 L 307.214844 25.457031 L 240.050781 25.457031 Z M 240.050781 10.1875 " clip-rule="nonzero"/></clipPath><clipPath id="146fb4acbd"><path d="M 0.0507812 0.1875 L 67.214844 0.1875 L 67.214844 15.457031 L 0.0507812 15.457031 Z M 0.0507812 0.1875 " clip-rule="nonzero"/></clipPath><clipPath id="36cc640b6b"><rect x="0" width="68" y="0" height="16"/></clipPath><clipPath id="3be1b646a1"><path d="M 240.050781 65.457031 L 307.214844 65.457031 L 307.214844 80.722656 L 240.050781 80.722656 Z M 240.050781 65.457031 " clip-rule="nonzero"/></clipPath><clipPath id="efa18b8326"><path d="M 0.0507812 0.457031 L 67.214844 0.457031 L 67.214844 15.722656 L 0.0507812 15.722656 Z M 0.0507812 0.457031 " clip-rule="nonzero"/></clipPath><clipPath id="c8e72fda4a"><rect x="0" width="68" y="0" height="16"/></clipPath><clipPath id="872cd97e14"><path d="M 239.421875 37.953125 L 302.847656 37.953125 L 302.847656 53.550781 L 239.421875 53.550781 Z M 239.421875 37.953125 " clip-rule="nonzero"/></clipPath><clipPath id="93d6802132"><path d="M 0.421875 0.953125 L 63.847656 0.953125 L 63.847656 16.550781 L 0.421875 16.550781 Z M 0.421875 0.953125 " clip-rule="nonzero"/></clipPath><clipPath id="ed9525c1c2"><rect x="0" width="64" y="0" height="17"/></clipPath><clipPath id="f3809b509f"><path d="M 168.75 10.207031 L 202 10.207031 L 202 81 L 168.75 81 Z M 168.75 10.207031 " clip-rule="nonzero"/></clipPath><clipPath id="6fa16f9402"><path d="M 113.703125 10.207031 L 168.753906 10.207031 L 168.753906 81.105469 L 113.703125 81.105469 Z M 113.703125 10.207031 " clip-rule="nonzero"/></clipPath><clipPath id="50246f3be0"><path d="M 127.972656 10.207031 L 113.707031 81.097656 L 132.710938 81.097656 L 143.914062 25.597656 L 168.539062 25.597656 L 165.570312 10.207031 Z M 127.972656 10.207031 " clip-rule="nonzero"/></clipPath><clipPath id="3749fc5725"><path d="M 0.703125 0.207031 L 55.585938 0.207031 L 55.585938 71.105469 L 0.703125 71.105469 Z M 0.703125 0.207031 " clip-rule="nonzero"/></clipPath><clipPath id="cc314d0802"><path d="M 14.972656 0.207031 L 0.707031 71.097656 L 19.710938 71.097656 L 30.914062 15.597656 L 55.539062 15.597656 L 52.570312 0.207031 Z M 14.972656 0.207031 " clip-rule="nonzero"/></clipPath><clipPath id="3682c7b296"><rect x="0" width="56" y="0" height="72"/></clipPath><clipPath id="ea61d4fc0f"><path d="M 71.816406 10.207031 L 100.183594 10.207031 L 100.183594 81.179688 L 71.816406 81.179688 Z M 71.816406 10.207031 " clip-rule="nonzero"/></clipPath><clipPath id="dc14b1ad28"><path d="M 71.925781 81.097656 L 88.296875 81.097656 L 100.183594 69.085938 L 100.183594 10.207031 L 71.925781 10.207031 Z M 71.925781 81.097656 " clip-rule="nonzero"/></clipPath><clipPath id="ddd70b7faf"><path d="M 0.816406 0.207031 L 29.183594 0.207031 L 29.183594 71.144531 L 0.816406 71.144531 Z M 0.816406 0.207031 " clip-rule="nonzero"/></clipPath><clipPath id="3847ec9cbb"><path d="M 0.925781 71.097656 L 17.296875 71.097656 L 29.183594 59.085938 L 29.183594 0.207031 L 0.925781 0.207031 Z M 0.925781 71.097656 " clip-rule="nonzero"/></clipPath><clipPath id="fdd228b678"><rect x="0" width="30" y="0" height="72"/></clipPath><clipPath id="27bd932364"><path d="M 10.179688 65.394531 L 70 65.394531 L 70 81.226562 L 10.179688 81.226562 Z M 10.179688 65.394531 " clip-rule="nonzero"/></clipPath><clipPath id="8207078db9"><path d="M 23.070312 81.167969 L 69.9375 81.167969 L 69.9375 65.457031 L 10.238281 65.71875 Z M 23.070312 81.167969 " clip-rule="nonzero"/></clipPath><clipPath id="407e64a43c"><path d="M 0.179688 0.394531 L 60 0.394531 L 60 16.226562 L 0.179688 16.226562 Z M 0.179688 0.394531 " clip-rule="nonzero"/></clipPath><clipPath id="c09f915010"><path d="M 13.070312 16.167969 L 59.9375 16.167969 L 59.9375 0.457031 L 0.238281 0.71875 Z M 13.070312 16.167969 " clip-rule="nonzero"/></clipPath><clipPath id="3bbe60da6e"><rect x="0" width="60" y="0" height="17"/></clipPath><clipPath id="e5c992280c"><path d="M 11.101562 107.949219 L 626.757812 107.949219 L 626.757812 114.730469 L 11.101562 114.730469 Z M 11.101562 107.949219 " clip-rule="nonzero"/></clipPath><clipPath id="ddb89b1927"><path d="M 0.101562 0.949219 L 615.757812 0.949219 L 615.757812 7.730469 L 0.101562 7.730469 Z M 0.101562 0.949219 " clip-rule="nonzero"/></clipPath><clipPath id="70b64ed818"><rect x="0" width="616" y="0" height="8"/></clipPath></defs><g clip-path="url(#517471f00a)"><g clip-path="url(#b3779a3d8f)"><g transform="matrix(1, 0, 0, 1, 563, 137)"><g clip-path="url(#ad1e327422)"><g clip-path="url(#ddabc0b2b8)"><g clip-path="url(#be305ec19f)"><path fill="#ffffff" d="M 0.0898438 0.382812 L 47.304688 0.382812 L 47.304688 78.769531 L 0.0898438 78.769531 Z M 0.0898438 0.382812 " fill-opacity="1" fill-rule="nonzero"/></g></g></g></g></g></g><g clip-path="url(#6b1128e0f3)"><g clip-path="url(#f32027ccf5)"><g transform="matrix(1, 0, 0, 1, 510, 137)"><g clip-path="url(#bb01909a14)"><g clip-path="url(#75a4823ec2)"><g clip-path="url(#0b3ac9a4d0)"><path fill="#ffffff" d="M 0.898438 0.382812 L 56.042969 0.382812 L 56.042969 78.789062 L 0.898438 78.789062 Z M 0.898438 0.382812 " fill-opacity="1" fill-rule="nonzero"/></g></g></g></g></g></g><g clip-path="url(#9af7ccd4f8)"><g clip-path="url(#f32937c6e8)"><g transform="matrix(1, 0, 0, 1, 10, 137)"><g clip-path="url(#0133b42dc6)"><g clip-path="url(#cedfe4f5cf)"><g clip-path="url(#b841ff81f9)"><path fill="#ffffff" d="M 0.835938 0.664062 L 104.667969 0.664062 L 104.667969 49.167969 L 0.835938 49.167969 Z M 0.835938 0.664062 " fill-opacity="1" fill-rule="nonzero"/></g></g></g></g></g></g><g clip-path="url(#96dad651b7)"><g clip-path="url(#f78277f9ef)"><g transform="matrix(1, 0, 0, 1, 11, 167)"><g clip-path="url(#9cd2ccc287)"><g clip-path="url(#d510fb9d78)"><g clip-path="url(#1b82ca61ec)"><path fill="#ffffff" d="M 0.738281 0.09375 L 104.378906 0.09375 L 104.378906 48.597656 L 0.738281 48.597656 Z M 0.738281 0.09375 " fill-opacity="1" fill-rule="nonzero"/></g></g></g></g></g></g><g clip-path="url(#16403c78c2)"><g clip-path="url(#5867d74001)"><g transform="matrix(1, 0, 0, 1, 273, 137)"><g clip-path="url(#521dbaa94a)"><g clip-path="url(#b54ee0c9ae)"><g clip-path="url(#cb0ad05934)"><path fill="#ffffff" d="M 0.0507812 0.664062 L 103.882812 0.664062 L 103.882812 49.167969 L 0.0507812 49.167969 Z M 0.0507812 0.664062 " fill-opacity="1" fill-rule="nonzero"/></g></g></g></g></g></g><g clip-path="url(#04004d673a)"><g clip-path="url(#b15db34984)"><g transform="matrix(1, 0, 0, 1, 273, 167)"><g clip-path="url(#3e290e12bd)"><g clip-path="url(#abaafa577d)"><g clip-path="url(#61db3fed71)"><path fill="#ffffff" d="M 0.914062 0.09375 L 104.558594 0.09375 L 104.558594 48.597656 L 0.914062 48.597656 Z M 0.914062 0.09375 " fill-opacity="1" fill-rule="nonzero"/></g></g></g></g></g></g><g clip-path="url(#f309c6e933)"><g clip-path="url(#696be05341)"><g transform="matrix(1, 0, 0, 1, 196, 137)"><g clip-path="url(#ea0590a37d)"><g clip-path="url(#7c11e329eb)"><g clip-path="url(#c4fbf856a2)"><path fill="#ffffff" d="M 0.785156 0.777344 L 50.679688 0.777344 L 50.679688 79.128906 L 0.785156 79.128906 Z M 0.785156 0.777344 " fill-opacity="1" fill-rule="nonzero"/></g></g></g></g></g></g><g clip-path="url(#ac9c21ef45)"><g clip-path="url(#6a98764070)"><g transform="matrix(1, 0, 0, 1, 140, 137)"><g clip-path="url(#393c9a4ddb)"><g clip-path="url(#ee3d102691)"><g clip-path="url(#55b9304112)"><path fill="#ffffff" d="M 0.613281 0.953125 L 56.082031 0.953125 L 56.082031 79.390625 L 0.613281 79.390625 Z M 0.613281 0.953125 " fill-opacity="1" fill-rule="nonzero"/></g></g></g></g></g></g><g clip-path="url(#78205e9025)"><g clip-path="url(#0a515c3c27)"><g transform="matrix(1, 0, 0, 1, 389, 137)"><g clip-path="url(#e485127302)"><g clip-path="url(#9b1cf234ac)"><g clip-path="url(#f295ccc329)"><path fill="#ffffff" d="M 0.152344 0.382812 L 104.21875 0.382812 L 104.21875 78.742188 L 0.152344 78.742188 Z M 0.152344 0.382812 " fill-opacity="1" fill-rule="nonzero"/></g></g></g></g></g></g><g clip-path="url(#432da6f0d7)"><g clip-path="url(#2b58d5a33e)"><g transform="matrix(1, 0, 0, 1, 324, 10)"><g clip-path="url(#3cbd7cfe7f)"><g clip-path="url(#7156609be5)"><g clip-path="url(#4763134973)"><path fill="#ffffff" d="M 0.320312 0.078125 L 18.417969 0.078125 L 18.417969 70.996094 L 0.320312 70.996094 Z M 0.320312 0.078125 " fill-opacity="1" fill-rule="nonzero"/></g></g></g></g></g></g><g clip-path="url(#b55c331d26)"><g transform="matrix(1, 0, 0, 1, 345, 10)"><g clip-path="url(#24d52afa0d)"><g clip-path="url(#c20ab59f90)"><path fill="#ffffff" d="M 0.320312 0.1875 L 67.476562 0.1875 L 67.476562 15.457031 L 0.320312 15.457031 Z M 0.320312 0.1875 " fill-opacity="1" fill-rule="nonzero"/></g></g></g></g><g clip-path="url(#8fc50f8092)"><g transform="matrix(1, 0, 0, 1, 345, 65)"><g clip-path="url(#591bd8b9be)"><g clip-path="url(#f9865c6687)"><path fill="#ffffff" d="M 0.574219 0.457031 L 67.757812 0.457031 L 67.757812 15.71875 L 0.574219 15.71875 Z M 0.574219 0.457031 " fill-opacity="1" fill-rule="nonzero"/></g></g></g></g><g clip-path="url(#830ca0ce8a)"><g clip-path="url(#398f9b7c75)"><g transform="matrix(1, 0, 0, 1, 412, 9)"><g clip-path="url(#6f81614d38)"><g clip-path="url(#1e706b9dc1)"><g clip-path="url(#fc742d6dbe)"><path fill="#ffffff" d="M 0.964844 0.949219 L 43.773438 0.949219 L 43.773438 71.851562 L 0.964844 71.851562 Z M 0.964844 0.949219 " fill-opacity="1" fill-rule="nonzero"/></g></g></g></g></g></g><g clip-path="url(#f3c55b127b)"><g clip-path="url(#186928c0a5)"><g transform="matrix(1, 0, 0, 1, 459, 9)"><g clip-path="url(#f80c06bb12)"><g clip-path="url(#16ee0f0532)"><g clip-path="url(#8b2b0f6f2a)"><path fill="#ffffff" d="M 0.304688 0.949219 L 43.117188 0.949219 L 43.117188 71.863281 L 0.304688 71.863281 Z M 0.304688 0.949219 " fill-opacity="1" fill-rule="nonzero"/></g></g></g></g></g></g><g clip-path="url(#bff13ddb12)"><g clip-path="url(#9efc98bc0a)"><g transform="matrix(1, 0, 0, 1, 520, 10)"><g clip-path="url(#e88f3561d8)"><g clip-path="url(#674c97b69b)"><g clip-path="url(#fa7b0cd76a)"><path fill="#ffffff" d="M 0.742188 0.207031 L 43.554688 0.207031 L 43.554688 71.117188 L 0.742188 71.117188 Z M 0.742188 0.207031 " fill-opacity="1" fill-rule="nonzero"/></g></g></g></g></g></g><g clip-path="url(#39bcc727ab)"><g clip-path="url(#24c6685e7f)"><g transform="matrix(1, 0, 0, 1, 567, 10)"><g clip-path="url(#3a9a7e0d8e)"><g clip-path="url(#6a2495b608)"><g clip-path="url(#d86e3a8498)"><path fill="#ffffff" d="M 0.078125 0.207031 L 42.890625 0.207031 L 42.890625 71.117188 L 0.078125 71.117188 Z M 0.078125 0.207031 " fill-opacity="1" fill-rule="nonzero"/></g></g></g></g></g></g><g clip-path="url(#17751a3dfb)"><g transform="matrix(1, 0, 0, 1, 218, 10)"><g clip-path="url(#9890927123)"><g clip-path="url(#7f9a7fd7e4)"><path fill="#ffffff" d="M 0.792969 0.207031 L 18.960938 0.207031 L 18.960938 71.09375 L 0.792969 71.09375 Z M 0.792969 0.207031 " fill-opacity="1" fill-rule="nonzero"/></g></g></g></g><g clip-path="url(#d32d6c1437)"><g transform="matrix(1, 0, 0, 1, 240, 10)"><g clip-path="url(#36cc640b6b)"><g clip-path="url(#146fb4acbd)"><path fill="#ffffff" d="M 0.0507812 0.1875 L 67.203125 0.1875 L 67.203125 15.457031 L 0.0507812 15.457031 Z M 0.0507812 0.1875 " fill-opacity="1" fill-rule="nonzero"/></g></g></g></g><g clip-path="url(#3be1b646a1)"><g transform="matrix(1, 0, 0, 1, 240, 65)"><g clip-path="url(#c8e72fda4a)"><g clip-path="url(#efa18b8326)"><path fill="#ffffff" d="M 0.0507812 0.457031 L 67.234375 0.457031 L 67.234375 15.71875 L 0.0507812 15.71875 Z M 0.0507812 0.457031 " fill-opacity="1" fill-rule="nonzero"/></g></g></g></g><g clip-path="url(#872cd97e14)"><g transform="matrix(1, 0, 0, 1, 239, 37)"><g clip-path="url(#ed9525c1c2)"><g clip-path="url(#93d6802132)"><path fill="#ffffff" d="M 0.421875 0.953125 L 63.859375 0.953125 L 63.859375 16.550781 L 0.421875 16.550781 Z M 0.421875 0.953125 " fill-opacity="1" fill-rule="nonzero"/></g></g></g></g><g clip-path="url(#f3809b509f)"><path fill="#ffffff" d="M 168.746094 10.210938 L 182.808594 80.765625 L 201.753906 80.761719 L 187.53125 10.210938 Z M 168.746094 10.210938 " fill-opacity="1" fill-rule="nonzero"/></g><g clip-path="url(#6fa16f9402)"><g clip-path="url(#50246f3be0)"><g transform="matrix(1, 0, 0, 1, 113, 10)"><g clip-path="url(#3682c7b296)"><g clip-path="url(#3749fc5725)"><g clip-path="url(#cc314d0802)"><path fill="#ffffff" d="M 0.703125 0.207031 L 55.539062 0.207031 L 55.539062 71.105469 L 0.703125 71.105469 Z M 0.703125 0.207031 " fill-opacity="1" fill-rule="nonzero"/></g></g></g></g></g></g><g clip-path="url(#ea61d4fc0f)"><g clip-path="url(#dc14b1ad28)"><g transform="matrix(1, 0, 0, 1, 71, 10)"><g clip-path="url(#fdd228b678)"><g clip-path="url(#ddd70b7faf)"><g clip-path="url(#3847ec9cbb)"><path fill="#ffffff" d="M 0.925781 0.207031 L 29.183594 0.207031 L 29.183594 71.066406 L 0.925781 71.066406 Z M 0.925781 0.207031 " fill-opacity="1" fill-rule="nonzero"/></g></g></g></g></g></g><g clip-path="url(#27bd932364)"><g clip-path="url(#8207078db9)"><g transform="matrix(1, 0, 0, 1, 10, 65)"><g clip-path="url(#3bbe60da6e)"><g clip-path="url(#407e64a43c)"><g clip-path="url(#c09f915010)"><path fill="#ffffff" d="M 0.242188 0.457031 L 59.9375 0.457031 L 59.9375 16.164062 L 0.242188 16.164062 Z M 0.242188 0.457031 " fill-opacity="1" fill-rule="nonzero"/></g></g></g></g></g></g><g clip-path="url(#e5c992280c)"><g transform="matrix(1, 0, 0, 1, 11, 107)"><g clip-path="url(#70b64ed818)"><g clip-path="url(#ddb89b1927)"><path fill="#d10010" d="M 0.105469 0.949219 L 615.75 0.949219 L 615.75 7.730469 L 0.105469 7.730469 Z M 0.105469 0.949219 " fill-opacity="1" fill-rule="nonzero"/></g></g></g></g></svg>