<svg xmlns="http://www.w3.org/2000/svg" xmlns:xlink="http://www.w3.org/1999/xlink" width="460" zoomAndPan="magnify" viewBox="0 0 345 141.750002" height="189" preserveAspectRatio="xMidYMid meet" version="1.0"><defs><clipPath id="2d7bf9a060"><path d="M 307.367188 61.65625 L 330.296875 61.65625 L 330.296875 99.433594 L 307.367188 99.433594 Z M 307.367188 61.65625 " clip-rule="nonzero"/></clipPath><clipPath id="eb11581f3b"><path d="M 316.226562 61.65625 L 307.453125 61.65625 L 321.292969 99.15625 L 321.292969 99.417969 L 330.210938 99.417969 L 316.371094 61.914062 Z M 316.226562 61.65625 " clip-rule="nonzero"/></clipPath><clipPath id="cbab98b0e1"><path d="M 0.390625 0.65625 L 23.296875 0.65625 L 23.296875 38.433594 L 0.390625 38.433594 Z M 0.390625 0.65625 " clip-rule="nonzero"/></clipPath><clipPath id="030ac6ea58"><path d="M 9.226562 0.65625 L 0.453125 0.65625 L 14.292969 38.15625 L 14.292969 38.417969 L 23.210938 38.417969 L 9.371094 0.914062 Z M 9.226562 0.65625 " clip-rule="nonzero"/></clipPath><clipPath id="5d7d8f41e9"><rect x="0" width="24" y="0" height="39"/></clipPath><clipPath id="bb42b1742b"><path d="M 282.300781 61.65625 L 308.980469 61.65625 L 308.980469 99.441406 L 282.300781 99.441406 Z M 282.300781 61.65625 " clip-rule="nonzero"/></clipPath><clipPath id="19f9dbea2f"><path d="M 293.054688 61.800781 L 282.300781 99.417969 L 290.460938 99.417969 L 298.882812 71.59375 L 308.878906 71.59375 L 305.292969 61.65625 Z M 293.054688 61.800781 " clip-rule="nonzero"/></clipPath><clipPath id="c94905bdb3"><path d="M 0.300781 0.65625 L 26.980469 0.65625 L 26.980469 38.441406 L 0.300781 38.441406 Z M 0.300781 0.65625 " clip-rule="nonzero"/></clipPath><clipPath id="d81fce602f"><path d="M 11.054688 0.800781 L 0.300781 38.417969 L 8.460938 38.417969 L 16.882812 10.59375 L 26.878906 10.59375 L 23.292969 0.65625 Z M 11.054688 0.800781 " clip-rule="nonzero"/></clipPath><clipPath id="cd85cd3d92"><rect x="0" width="27" y="0" height="39"/></clipPath><clipPath id="e5f3bd8a92"><path d="M 0.238281 61.867188 L 50.371094 61.867188 L 50.371094 85.335938 L 0.238281 85.335938 Z M 0.238281 61.867188 " clip-rule="nonzero"/></clipPath><clipPath id="311313956a"><path d="M 8.367188 79.886719 L 8.25 79.742188 L 8.25 72.582031 L 12.441406 67.867188 L 38.003906 67.867188 L 50.347656 80.792969 L 50.347656 68.125 L 44.175781 62.015625 L 6.007812 61.871094 L 0.332031 68.125 L 0.332031 76.367188 L 8.367188 85.246094 Z M 8.367188 79.886719 " clip-rule="nonzero"/></clipPath><clipPath id="b8a993e6a8"><path d="M 0.25 0.867188 L 50.371094 0.867188 L 50.371094 24.335938 L 0.25 24.335938 Z M 0.25 0.867188 " clip-rule="nonzero"/></clipPath><clipPath id="1b63b340c9"><path d="M 8.367188 18.886719 L 8.25 18.742188 L 8.25 11.582031 L 12.441406 6.867188 L 38.003906 6.867188 L 50.347656 19.792969 L 50.347656 7.125 L 44.175781 1.015625 L 6.007812 0.871094 L 0.332031 7.125 L 0.332031 15.367188 L 8.367188 24.246094 Z M 8.367188 18.886719 " clip-rule="nonzero"/></clipPath><clipPath id="7c73c16d0f"><rect x="0" width="51" y="0" height="25"/></clipPath><clipPath id="fe860dbb46"><path d="M 0.3125 76.050781 L 50.355469 76.050781 L 50.355469 99.429688 L 0.3125 99.429688 Z M 0.3125 76.050781 " clip-rule="nonzero"/></clipPath><clipPath id="1ad88d2dd2"><path d="M 42.320312 88.914062 L 42.207031 88.914062 L 42.207031 89.175781 L 37.773438 93.316406 L 12.335938 93.316406 L 0.402344 79.558594 L 0.402344 93.199219 L 6.546875 99.429688 L 44.03125 99.429688 L 50.316406 93.054688 L 50.316406 84.105469 L 42.320312 76.050781 Z M 42.320312 88.914062 " clip-rule="nonzero"/></clipPath><clipPath id="995bc3f679"><path d="M 0.3125 0.0507812 L 50.324219 0.0507812 L 50.324219 23.429688 L 0.3125 23.429688 Z M 0.3125 0.0507812 " clip-rule="nonzero"/></clipPath><clipPath id="490a3f10aa"><path d="M 42.320312 12.914062 L 42.207031 12.914062 L 42.207031 13.175781 L 37.773438 17.316406 L 12.335938 17.316406 L 0.402344 3.558594 L 0.402344 17.199219 L 6.546875 23.429688 L 44.03125 23.429688 L 50.316406 17.054688 L 50.316406 8.105469 L 42.320312 0.0507812 Z M 42.320312 12.914062 " clip-rule="nonzero"/></clipPath><clipPath id="a1511c0ebc"><rect x="0" width="51" y="0" height="24"/></clipPath><clipPath id="11af607644"><path d="M 126.703125 61.867188 L 176.835938 61.867188 L 176.835938 85.335938 L 126.703125 85.335938 Z M 126.703125 61.867188 " clip-rule="nonzero"/></clipPath><clipPath id="f47269c708"><path d="M 134.855469 79.886719 L 134.738281 79.742188 L 134.738281 72.582031 L 138.929688 67.867188 L 164.375 67.867188 L 176.746094 80.792969 L 176.746094 68.125 L 170.691406 62.015625 L 132.527344 61.871094 L 126.703125 68.125 L 126.703125 76.367188 L 134.855469 85.246094 Z M 134.855469 79.886719 " clip-rule="nonzero"/></clipPath><clipPath id="6824ecd9d9"><path d="M 0.703125 0.867188 L 50.820312 0.867188 L 50.820312 24.335938 L 0.703125 24.335938 Z M 0.703125 0.867188 " clip-rule="nonzero"/></clipPath><clipPath id="3bfed5e18d"><path d="M 8.855469 18.886719 L 8.738281 18.742188 L 8.738281 11.582031 L 12.929688 6.867188 L 38.375 6.867188 L 50.746094 19.792969 L 50.746094 7.125 L 44.691406 1.015625 L 6.527344 0.871094 L 0.703125 7.125 L 0.703125 15.367188 L 8.855469 24.246094 Z M 8.855469 18.886719 " clip-rule="nonzero"/></clipPath><clipPath id="4899b79205"><rect x="0" width="51" y="0" height="25"/></clipPath><clipPath id="d60b613432"><path d="M 126.757812 76.050781 L 176.707031 76.050781 L 176.707031 99.429688 L 126.757812 99.429688 Z M 126.757812 76.050781 " clip-rule="nonzero"/></clipPath><clipPath id="26207014f9"><path d="M 168.792969 88.914062 L 168.675781 88.914062 L 168.675781 89.175781 L 164.246094 93.316406 L 138.808594 93.316406 L 126.757812 79.558594 L 126.757812 93.199219 L 132.929688 99.429688 L 170.53125 99.429688 L 176.671875 93.054688 L 176.671875 84.105469 L 168.792969 76.050781 Z M 168.792969 88.914062 " clip-rule="nonzero"/></clipPath><clipPath id="fcfbd055d2"><path d="M 0.757812 0.0507812 L 50.707031 0.0507812 L 50.707031 23.429688 L 0.757812 23.429688 Z M 0.757812 0.0507812 " clip-rule="nonzero"/></clipPath><clipPath id="3c5216277c"><path d="M 42.792969 12.914062 L 42.675781 12.914062 L 42.675781 13.175781 L 38.246094 17.316406 L 12.808594 17.316406 L 0.757812 3.558594 L 0.757812 17.199219 L 6.929688 23.429688 L 44.53125 23.429688 L 50.671875 17.054688 L 50.671875 8.105469 L 42.792969 0.0507812 Z M 42.792969 12.914062 " clip-rule="nonzero"/></clipPath><clipPath id="659b733aab"><rect x="0" width="51" y="0" height="24"/></clipPath><clipPath id="b14044cd34"><path d="M 89.976562 61.925781 L 114.117188 61.925781 L 114.117188 99.777344 L 89.976562 99.777344 Z M 89.976562 61.925781 " clip-rule="nonzero"/></clipPath><clipPath id="ed029099a1"><path d="M 94.75 61.925781 L 89.976562 87.878906 L 91.914062 99.308594 L 95.242188 99.425781 L 100.042969 71.792969 L 106.035156 71.792969 L 106.035156 99.6875 L 114.023438 99.6875 L 114.023438 68.289062 L 108.496094 61.925781 Z M 94.75 61.925781 " clip-rule="nonzero"/></clipPath><clipPath id="38e36c0fe3"><path d="M 0.976562 0.925781 L 25.050781 0.925781 L 25.050781 38.746094 L 0.976562 38.746094 Z M 0.976562 0.925781 " clip-rule="nonzero"/></clipPath><clipPath id="bfc3bfa1fc"><path d="M 5.75 0.925781 L 0.976562 26.878906 L 2.914062 38.308594 L 6.242188 38.425781 L 11.042969 10.792969 L 17.035156 10.792969 L 17.035156 38.6875 L 25.023438 38.6875 L 25.023438 7.289062 L 19.496094 0.925781 Z M 5.75 0.925781 " clip-rule="nonzero"/></clipPath><clipPath id="3bd39e11fc"><rect x="0" width="26" y="0" height="39"/></clipPath><clipPath id="f5520d0542"><path d="M 62.875 62.007812 L 89.714844 62.007812 L 89.714844 99.808594 L 62.875 99.808594 Z M 62.875 62.007812 " clip-rule="nonzero"/></clipPath><clipPath id="32343cc538"><path d="M 68.304688 62.007812 L 62.878906 68.511719 L 62.878906 99.625 L 71.003906 99.625 L 71.003906 71.90625 L 77.042969 71.90625 L 81.484375 99.769531 L 89.609375 99.769531 L 82.960938 62.007812 Z M 68.304688 62.007812 " clip-rule="nonzero"/></clipPath><clipPath id="9025eb7dff"><path d="M 0.875 0.0078125 L 27.613281 0.0078125 L 27.613281 37.808594 L 0.875 37.808594 Z M 0.875 0.0078125 " clip-rule="nonzero"/></clipPath><clipPath id="8190b6e792"><path d="M 6.304688 0.0078125 L 0.878906 6.511719 L 0.878906 37.625 L 9.003906 37.625 L 9.003906 9.90625 L 15.042969 9.90625 L 19.484375 37.769531 L 27.609375 37.769531 L 20.960938 0.0078125 Z M 6.304688 0.0078125 " clip-rule="nonzero"/></clipPath><clipPath id="3d541c42b2"><rect x="0" width="28" y="0" height="38"/></clipPath><clipPath id="fc4e353b1f"><path d="M 223.988281 61.65625 L 274.289062 61.65625 L 274.289062 99.566406 L 223.988281 99.566406 Z M 223.988281 61.65625 " clip-rule="nonzero"/></clipPath><clipPath id="dea2556519"><path d="M 257.730469 61.65625 L 266.007812 68.445312 L 266.007812 88.960938 L 260.0625 93.273438 L 232.382812 93.273438 L 232.382812 67.917969 L 261.429688 67.917969 L 253.886719 61.65625 L 223.988281 61.65625 L 223.988281 99.417969 L 268.222656 99.417969 L 274.164062 93.152344 L 274.164062 67.917969 L 266.621094 61.65625 Z M 257.730469 61.65625 " clip-rule="nonzero"/></clipPath><clipPath id="a6b9e3cfa6"><path d="M 0.988281 0.65625 L 51.289062 0.65625 L 51.289062 38.507812 L 0.988281 38.507812 Z M 0.988281 0.65625 " clip-rule="nonzero"/></clipPath><clipPath id="595e2f9e80"><path d="M 34.730469 0.65625 L 43.007812 7.445312 L 43.007812 27.960938 L 37.0625 32.273438 L 9.382812 32.273438 L 9.382812 6.917969 L 38.429688 6.917969 L 30.886719 0.65625 L 0.988281 0.65625 L 0.988281 38.417969 L 45.222656 38.417969 L 51.164062 32.152344 L 51.164062 6.917969 L 43.621094 0.65625 Z M 34.730469 0.65625 " clip-rule="nonzero"/></clipPath><clipPath id="d23a33bf48"><rect x="0" width="52" y="0" height="39"/></clipPath><clipPath id="319d1063ff"><path d="M 151.410156 0.378906 L 160.132812 0.378906 L 160.132812 34.558594 L 151.410156 34.558594 Z M 151.410156 0.378906 " clip-rule="nonzero"/></clipPath><clipPath id="44eed55bff"><path d="M 151.410156 6.558594 L 151.410156 28.5625 L 157.324219 34.546875 L 160.132812 34.546875 L 160.132812 0.378906 L 157.324219 0.378906 Z M 151.410156 6.558594 " clip-rule="nonzero"/></clipPath><clipPath id="e7b3e732a8"><path d="M 0.410156 0.378906 L 9.132812 0.378906 L 9.132812 34.558594 L 0.410156 34.558594 Z M 0.410156 0.378906 " clip-rule="nonzero"/></clipPath><clipPath id="d165a11e61"><path d="M 0.410156 6.558594 L 0.410156 28.5625 L 6.324219 34.546875 L 9.132812 34.546875 L 9.132812 0.378906 L 6.324219 0.378906 Z M 0.410156 6.558594 " clip-rule="nonzero"/></clipPath><clipPath id="c587eff35b"><rect x="0" width="10" y="0" height="35"/></clipPath><clipPath id="3573a4afce"><path d="M 161.53125 0.460938 L 193.902344 0.460938 L 193.902344 7.820312 L 161.53125 7.820312 Z M 161.53125 0.460938 " clip-rule="nonzero"/></clipPath><clipPath id="bcf68f3dad"><path d="M 0.53125 0.460938 L 32.902344 0.460938 L 32.902344 7.820312 L 0.53125 7.820312 Z M 0.53125 0.460938 " clip-rule="nonzero"/></clipPath><clipPath id="043f105eed"><rect x="0" width="33" y="0" height="8"/></clipPath><clipPath id="5599e1a16a"><path d="M 161.65625 27.097656 L 194.023438 27.097656 L 194.023438 34.453125 L 161.65625 34.453125 Z M 161.65625 27.097656 " clip-rule="nonzero"/></clipPath><clipPath id="312aa40dea"><path d="M 0.65625 0.0976562 L 33.023438 0.0976562 L 33.023438 7.453125 L 0.65625 7.453125 Z M 0.65625 0.0976562 " clip-rule="nonzero"/></clipPath><clipPath id="074a588519"><rect x="0" width="34" y="0" height="8"/></clipPath><clipPath id="90bc1fb453"><path d="M 235.773438 0.242188 L 256.484375 0.242188 L 256.484375 34.410156 L 235.773438 34.410156 Z M 235.773438 0.242188 " clip-rule="nonzero"/></clipPath><clipPath id="b21df46578"><path d="M 244.234375 23.769531 L 244.234375 10.84375 L 247.324219 7.753906 L 256.484375 7.753906 L 256.484375 0.242188 L 241.800781 0.242188 L 235.851562 6.421875 L 235.851562 28.457031 L 241.800781 34.40625 L 256.484375 34.40625 L 256.484375 27.144531 L 247.609375 27.144531 Z M 244.234375 23.769531 " clip-rule="nonzero"/></clipPath><clipPath id="6b90c58c87"><path d="M 0.773438 0.242188 L 21.484375 0.242188 L 21.484375 34.410156 L 0.773438 34.410156 Z M 0.773438 0.242188 " clip-rule="nonzero"/></clipPath><clipPath id="480f6c3f7c"><path d="M 9.234375 23.769531 L 9.234375 10.84375 L 12.324219 7.753906 L 21.484375 7.753906 L 21.484375 0.242188 L 6.800781 0.242188 L 0.851562 6.421875 L 0.851562 28.457031 L 6.800781 34.40625 L 21.484375 34.40625 L 21.484375 27.144531 L 12.609375 27.144531 Z M 9.234375 23.769531 " clip-rule="nonzero"/></clipPath><clipPath id="599a65b965"><rect x="0" width="22" y="0" height="35"/></clipPath><clipPath id="5d91f7b470"><path d="M 258.101562 0.242188 L 278.816406 0.242188 L 278.816406 34.414062 L 258.101562 34.414062 Z M 258.101562 0.242188 " clip-rule="nonzero"/></clipPath><clipPath id="d56d5626a3"><path d="M 258.183594 0.242188 L 258.183594 7.75 L 267.34375 7.75 L 270.433594 10.839844 L 270.433594 23.769531 L 267.058594 27.140625 L 258.183594 27.140625 L 258.183594 34.40625 L 272.871094 34.40625 L 278.816406 28.457031 L 278.816406 6.417969 L 272.871094 0.242188 Z M 258.183594 0.242188 " clip-rule="nonzero"/></clipPath><clipPath id="12fd8c5c3a"><path d="M 0.101562 0.242188 L 20.816406 0.242188 L 20.816406 34.414062 L 0.101562 34.414062 Z M 0.101562 0.242188 " clip-rule="nonzero"/></clipPath><clipPath id="90f27a8430"><path d="M 0.183594 0.242188 L 0.183594 7.75 L 9.34375 7.75 L 12.433594 10.839844 L 12.433594 23.769531 L 9.058594 27.140625 L 0.183594 27.140625 L 0.183594 34.40625 L 14.871094 34.40625 L 20.816406 28.457031 L 20.816406 6.417969 L 14.871094 0.242188 Z M 0.183594 0.242188 " clip-rule="nonzero"/></clipPath><clipPath id="834fa655ba"><rect x="0" width="21" y="0" height="35"/></clipPath><clipPath id="5915ce3b8e"><path d="M 287.710938 0.363281 L 308.425781 0.363281 L 308.425781 34.539062 L 287.710938 34.539062 Z M 287.710938 0.363281 " clip-rule="nonzero"/></clipPath><clipPath id="deeb6e515f"><path d="M 296.175781 23.894531 L 296.175781 10.964844 L 299.265625 7.875 L 308.425781 7.875 L 308.425781 0.363281 L 293.742188 0.363281 L 287.792969 6.542969 L 287.792969 28.582031 L 293.742188 34.53125 L 308.425781 34.53125 L 308.425781 27.265625 L 299.550781 27.265625 Z M 296.175781 23.894531 " clip-rule="nonzero"/></clipPath><clipPath id="532bddd275"><path d="M 0.746094 0.363281 L 21.425781 0.363281 L 21.425781 34.539062 L 0.746094 34.539062 Z M 0.746094 0.363281 " clip-rule="nonzero"/></clipPath><clipPath id="fc12bad2f5"><path d="M 9.175781 23.894531 L 9.175781 10.964844 L 12.265625 7.875 L 21.425781 7.875 L 21.425781 0.363281 L 6.742188 0.363281 L 0.792969 6.542969 L 0.792969 28.582031 L 6.742188 34.53125 L 21.425781 34.53125 L 21.425781 27.265625 L 12.550781 27.265625 Z M 9.175781 23.894531 " clip-rule="nonzero"/></clipPath><clipPath id="92bcad80ec"><rect x="0" width="22" y="0" height="35"/></clipPath><clipPath id="81f174118a"><path d="M 310.042969 0.363281 L 330.757812 0.363281 L 330.757812 34.539062 L 310.042969 34.539062 Z M 310.042969 0.363281 " clip-rule="nonzero"/></clipPath><clipPath id="243540f7cd"><path d="M 310.125 0.363281 L 310.125 7.875 L 319.285156 7.875 L 322.371094 10.964844 L 322.371094 23.894531 L 319 27.265625 L 310.125 27.265625 L 310.125 34.53125 L 324.808594 34.53125 L 330.757812 28.582031 L 330.757812 6.542969 L 324.808594 0.363281 Z M 310.125 0.363281 " clip-rule="nonzero"/></clipPath><clipPath id="72735be87f"><path d="M 0.0429688 0.363281 L 20.757812 0.363281 L 20.757812 34.539062 L 0.0429688 34.539062 Z M 0.0429688 0.363281 " clip-rule="nonzero"/></clipPath><clipPath id="6054251809"><path d="M 0.125 0.363281 L 0.125 7.875 L 9.285156 7.875 L 12.371094 10.964844 L 12.371094 23.894531 L 9 27.265625 L 0.125 27.265625 L 0.125 34.53125 L 14.808594 34.53125 L 20.757812 28.582031 L 20.757812 6.542969 L 14.808594 0.363281 Z M 0.125 0.363281 " clip-rule="nonzero"/></clipPath><clipPath id="d72e0311b1"><rect x="0" width="21" y="0" height="35"/></clipPath><clipPath id="7490189790"><path d="M 100.554688 0.441406 L 109.308594 0.441406 L 109.308594 34.609375 L 100.554688 34.609375 Z M 100.554688 0.441406 " clip-rule="nonzero"/></clipPath><clipPath id="410bdb0a84"><path d="M 0.554688 0.441406 L 9.308594 0.441406 L 9.308594 34.609375 L 0.554688 34.609375 Z M 0.554688 0.441406 " clip-rule="nonzero"/></clipPath><clipPath id="846a4f6291"><rect x="0" width="10" y="0" height="35"/></clipPath><clipPath id="847d4096de"><path d="M 110.800781 0.460938 L 143.167969 0.460938 L 143.167969 7.816406 L 110.800781 7.816406 Z M 110.800781 0.460938 " clip-rule="nonzero"/></clipPath><clipPath id="b56dc16476"><path d="M 0.800781 0.460938 L 33.167969 0.460938 L 33.167969 7.816406 L 0.800781 7.816406 Z M 0.800781 0.460938 " clip-rule="nonzero"/></clipPath><clipPath id="f9312cbf77"><rect x="0" width="34" y="0" height="8"/></clipPath><clipPath id="370d860a6c"><path d="M 110.800781 27.097656 L 143.167969 27.097656 L 143.167969 34.453125 L 110.800781 34.453125 Z M 110.800781 27.097656 " clip-rule="nonzero"/></clipPath><clipPath id="20fe92542f"><path d="M 0.800781 0.0976562 L 33.167969 0.0976562 L 33.167969 7.453125 L 0.800781 7.453125 Z M 0.800781 0.0976562 " clip-rule="nonzero"/></clipPath><clipPath id="95c482dc99"><rect x="0" width="34" y="0" height="8"/></clipPath><clipPath id="be58677984"><path d="M 110.496094 13.839844 L 141.066406 13.839844 L 141.066406 21.355469 L 110.496094 21.355469 Z M 110.496094 13.839844 " clip-rule="nonzero"/></clipPath><clipPath id="3609fc44e3"><path d="M 0.496094 0.839844 L 31.066406 0.839844 L 31.066406 8.355469 L 0.496094 8.355469 Z M 0.496094 0.839844 " clip-rule="nonzero"/></clipPath><clipPath id="525033d36a"><rect x="0" width="32" y="0" height="9"/></clipPath><clipPath id="6c56d9960d"><path d="M 76.4375 0.441406 L 92.90625 0.441406 L 92.90625 34.882812 L 76.4375 34.882812 Z M 76.4375 0.441406 " clip-rule="nonzero"/></clipPath><clipPath id="b04d8b1f98"><path d="M 49.546875 0.441406 L 76 0.441406 L 76 34.609375 L 49.546875 34.609375 Z M 49.546875 0.441406 " clip-rule="nonzero"/></clipPath><clipPath id="9ee2340618"><path d="M 56.421875 0.441406 L 49.546875 34.609375 L 58.707031 34.609375 L 64.105469 7.859375 L 75.972656 7.859375 L 74.542969 0.441406 Z M 56.421875 0.441406 " clip-rule="nonzero"/></clipPath><clipPath id="168e03442b"><path d="M 0.546875 0.441406 L 27 0.441406 L 27 34.609375 L 0.546875 34.609375 Z M 0.546875 0.441406 " clip-rule="nonzero"/></clipPath><clipPath id="e0a5e00348"><path d="M 7.421875 0.441406 L 0.546875 34.609375 L 9.707031 34.609375 L 15.105469 7.859375 L 26.972656 7.859375 L 25.542969 0.441406 Z M 7.421875 0.441406 " clip-rule="nonzero"/></clipPath><clipPath id="5eb8fa3b4a"><rect x="0" width="27" y="0" height="35"/></clipPath><clipPath id="5fa13aae85"><path d="M 30.109375 0.441406 L 43.777344 0.441406 L 43.777344 34.644531 L 30.109375 34.644531 Z M 30.109375 0.441406 " clip-rule="nonzero"/></clipPath><clipPath id="3ea8ca4228"><path d="M 30.160156 34.609375 L 38.050781 34.609375 L 43.777344 28.820312 L 43.777344 0.441406 L 30.160156 0.441406 Z M 30.160156 34.609375 " clip-rule="nonzero"/></clipPath><clipPath id="9230765c7b"><path d="M 0.109375 0.441406 L 13.777344 0.441406 L 13.777344 34.644531 L 0.109375 34.644531 Z M 0.109375 0.441406 " clip-rule="nonzero"/></clipPath><clipPath id="f95fd42c0a"><path d="M 0.160156 34.609375 L 8.050781 34.609375 L 13.777344 28.820312 L 13.777344 0.441406 L 0.160156 0.441406 Z M 0.160156 34.609375 " clip-rule="nonzero"/></clipPath><clipPath id="176f4fb7b2"><rect x="0" width="14" y="0" height="35"/></clipPath><clipPath id="25f75dd4d0"><path d="M 0.015625 27.066406 L 28.84375 27.066406 L 28.84375 34.695312 L 0.015625 34.695312 Z M 0.015625 27.066406 " clip-rule="nonzero"/></clipPath><clipPath id="097e9f4207"><path d="M 6.226562 34.667969 L 28.816406 34.667969 L 28.816406 27.097656 L 0.0429688 27.222656 Z M 6.226562 34.667969 " clip-rule="nonzero"/></clipPath><clipPath id="dd29740bda"><path d="M 0.015625 0.0664062 L 28.84375 0.0664062 L 28.84375 7.695312 L 0.015625 7.695312 Z M 0.015625 0.0664062 " clip-rule="nonzero"/></clipPath><clipPath id="3c8a1ba061"><path d="M 6.226562 7.667969 L 28.816406 7.667969 L 28.816406 0.0976562 L 0.0429688 0.222656 Z M 6.226562 7.667969 " clip-rule="nonzero"/></clipPath><clipPath id="977c063e83"><rect x="0" width="29" y="0" height="8"/></clipPath><clipPath id="ad4d6a4b89"><path d="M 0.460938 47.960938 L 297.167969 47.960938 L 297.167969 51.230469 L 0.460938 51.230469 Z M 0.460938 47.960938 " clip-rule="nonzero"/></clipPath><clipPath id="0f61ac9526"><path d="M 0.460938 0.960938 L 297.167969 0.960938 L 297.167969 4.230469 L 0.460938 4.230469 Z M 0.460938 0.960938 " clip-rule="nonzero"/></clipPath><clipPath id="1e52ed4925"><rect x="0" width="298" y="0" height="5"/></clipPath><clipPath id="a4bde96fcb"><rect x="0" width="331" y="0" height="100"/></clipPath></defs><g transform="matrix(1, 0, 0, 1, 7, 21)"><g clip-path="url(#a4bde96fcb)"><g clip-path="url(#2d7bf9a060)"><g clip-path="url(#eb11581f3b)"><g transform="matrix(1, 0, 0, 1, 307, 61)"><g clip-path="url(#5d7d8f41e9)"><g clip-path="url(#cbab98b0e1)"><g clip-path="url(#030ac6ea58)"><path fill="#ffffff" d="M 0.453125 0.65625 L 23.210938 0.65625 L 23.210938 38.433594 L 0.453125 38.433594 Z M 0.453125 0.65625 " fill-opacity="1" fill-rule="nonzero"/></g></g></g></g></g></g><g clip-path="url(#bb42b1742b)"><g clip-path="url(#19f9dbea2f)"><g transform="matrix(1, 0, 0, 1, 282, 61)"><g clip-path="url(#cd85cd3d92)"><g clip-path="url(#c94905bdb3)"><g clip-path="url(#d81fce602f)"><path fill="#ffffff" d="M 0.300781 0.65625 L 26.875 0.65625 L 26.875 38.441406 L 0.300781 38.441406 Z M 0.300781 0.65625 " fill-opacity="1" fill-rule="nonzero"/></g></g></g></g></g></g><g clip-path="url(#e5f3bd8a92)"><g clip-path="url(#311313956a)"><g transform="matrix(1, 0, 0, 1, 0.000000000000000888, 61)"><g clip-path="url(#7c73c16d0f)"><g clip-path="url(#b8a993e6a8)"><g clip-path="url(#1b63b340c9)"><path fill="#ffffff" d="M 0.332031 0.867188 L 50.371094 0.867188 L 50.371094 24.246094 L 0.332031 24.246094 Z M 0.332031 0.867188 " fill-opacity="1" fill-rule="nonzero"/></g></g></g></g></g></g><g clip-path="url(#fe860dbb46)"><g clip-path="url(#1ad88d2dd2)"><g transform="matrix(1, 0, 0, 1, 0.000000000000000888, 76)"><g clip-path="url(#a1511c0ebc)"><g clip-path="url(#995bc3f679)"><g clip-path="url(#490a3f10aa)"><path fill="#ffffff" d="M 0.40625 0.0507812 L 50.355469 0.0507812 L 50.355469 23.429688 L 0.40625 23.429688 Z M 0.40625 0.0507812 " fill-opacity="1" fill-rule="nonzero"/></g></g></g></g></g></g><g clip-path="url(#11af607644)"><g clip-path="url(#f47269c708)"><g transform="matrix(1, 0, 0, 1, 126, 61)"><g clip-path="url(#4899b79205)"><g clip-path="url(#6824ecd9d9)"><g clip-path="url(#3bfed5e18d)"><path fill="#ffffff" d="M 0.703125 0.867188 L 50.742188 0.867188 L 50.742188 24.246094 L 0.703125 24.246094 Z M 0.703125 0.867188 " fill-opacity="1" fill-rule="nonzero"/></g></g></g></g></g></g><g clip-path="url(#d60b613432)"><g clip-path="url(#26207014f9)"><g transform="matrix(1, 0, 0, 1, 126, 76)"><g clip-path="url(#659b733aab)"><g clip-path="url(#fcfbd055d2)"><g clip-path="url(#3c5216277c)"><path fill="#ffffff" d="M 0.757812 0.0507812 L 50.707031 0.0507812 L 50.707031 23.429688 L 0.757812 23.429688 Z M 0.757812 0.0507812 " fill-opacity="1" fill-rule="nonzero"/></g></g></g></g></g></g><g clip-path="url(#b14044cd34)"><g clip-path="url(#ed029099a1)"><g transform="matrix(1, 0, 0, 1, 89, 61)"><g clip-path="url(#3bd39e11fc)"><g clip-path="url(#38e36c0fe3)"><g clip-path="url(#bfc3bfa1fc)"><path fill="#ffffff" d="M 0.976562 0.925781 L 25.019531 0.925781 L 25.019531 38.683594 L 0.976562 38.683594 Z M 0.976562 0.925781 " fill-opacity="1" fill-rule="nonzero"/></g></g></g></g></g></g><g clip-path="url(#f5520d0542)"><g clip-path="url(#32343cc538)"><g transform="matrix(1, 0, 0, 1, 62, 62)"><g clip-path="url(#3d541c42b2)"><g clip-path="url(#9025eb7dff)"><g clip-path="url(#8190b6e792)"><path fill="#ffffff" d="M 0.875 0.0078125 L 27.609375 0.0078125 L 27.609375 37.808594 L 0.875 37.808594 Z M 0.875 0.0078125 " fill-opacity="1" fill-rule="nonzero"/></g></g></g></g></g></g><g clip-path="url(#fc4e353b1f)"><g clip-path="url(#dea2556519)"><g transform="matrix(1, 0, 0, 1, 223, 61)"><g clip-path="url(#d23a33bf48)"><g clip-path="url(#a6b9e3cfa6)"><g clip-path="url(#595e2f9e80)"><path fill="#ffffff" d="M 0.988281 0.65625 L 51.140625 0.65625 L 51.140625 38.417969 L 0.988281 38.417969 Z M 0.988281 0.65625 " fill-opacity="1" fill-rule="nonzero"/></g></g></g></g></g></g><g clip-path="url(#319d1063ff)"><g clip-path="url(#44eed55bff)"><g transform="matrix(1, 0, 0, 1, 151, -0.000000000000007105)"><g clip-path="url(#c587eff35b)"><g clip-path="url(#e7b3e732a8)"><g clip-path="url(#d165a11e61)"><path fill="#ffffff" d="M 0.410156 0.378906 L 9.132812 0.378906 L 9.132812 34.558594 L 0.410156 34.558594 Z M 0.410156 0.378906 " fill-opacity="1" fill-rule="nonzero"/></g></g></g></g></g></g><g clip-path="url(#3573a4afce)"><g transform="matrix(1, 0, 0, 1, 161, -0.000000000000007105)"><g clip-path="url(#043f105eed)"><g clip-path="url(#bcf68f3dad)"><path fill="#ffffff" d="M 0.53125 0.460938 L 32.898438 0.460938 L 32.898438 7.820312 L 0.53125 7.820312 Z M 0.53125 0.460938 " fill-opacity="1" fill-rule="nonzero"/></g></g></g></g><g clip-path="url(#5599e1a16a)"><g transform="matrix(1, 0, 0, 1, 161, 27)"><g clip-path="url(#074a588519)"><g clip-path="url(#312aa40dea)"><path fill="#ffffff" d="M 0.65625 0.0976562 L 33.035156 0.0976562 L 33.035156 7.449219 L 0.65625 7.449219 Z M 0.65625 0.0976562 " fill-opacity="1" fill-rule="nonzero"/></g></g></g></g><g clip-path="url(#90bc1fb453)"><g clip-path="url(#b21df46578)"><g transform="matrix(1, 0, 0, 1, 235, -0.000000000000007105)"><g clip-path="url(#599a65b965)"><g clip-path="url(#6b90c58c87)"><g clip-path="url(#480f6c3f7c)"><path fill="#ffffff" d="M 0.851562 0.242188 L 21.484375 0.242188 L 21.484375 34.410156 L 0.851562 34.410156 Z M 0.851562 0.242188 " fill-opacity="1" fill-rule="nonzero"/></g></g></g></g></g></g><g clip-path="url(#5d91f7b470)"><g clip-path="url(#d56d5626a3)"><g transform="matrix(1, 0, 0, 1, 258, -0.000000000000007105)"><g clip-path="url(#834fa655ba)"><g clip-path="url(#12fd8c5c3a)"><g clip-path="url(#90f27a8430)"><path fill="#ffffff" d="M 0.183594 0.242188 L 20.816406 0.242188 L 20.816406 34.414062 L 0.183594 34.414062 Z M 0.183594 0.242188 " fill-opacity="1" fill-rule="nonzero"/></g></g></g></g></g></g><g clip-path="url(#5915ce3b8e)"><g clip-path="url(#deeb6e515f)"><g transform="matrix(1, 0, 0, 1, 287, -0.000000000000007105)"><g clip-path="url(#92bcad80ec)"><g clip-path="url(#532bddd275)"><g clip-path="url(#fc12bad2f5)"><path fill="#ffffff" d="M 0.792969 0.363281 L 21.425781 0.363281 L 21.425781 34.539062 L 0.792969 34.539062 Z M 0.792969 0.363281 " fill-opacity="1" fill-rule="nonzero"/></g></g></g></g></g></g><g clip-path="url(#81f174118a)"><g clip-path="url(#243540f7cd)"><g transform="matrix(1, 0, 0, 1, 310, -0.000000000000007105)"><g clip-path="url(#d72e0311b1)"><g clip-path="url(#72735be87f)"><g clip-path="url(#6054251809)"><path fill="#ffffff" d="M 0.125 0.363281 L 20.757812 0.363281 L 20.757812 34.539062 L 0.125 34.539062 Z M 0.125 0.363281 " fill-opacity="1" fill-rule="nonzero"/></g></g></g></g></g></g><g clip-path="url(#7490189790)"><g transform="matrix(1, 0, 0, 1, 100, -0.000000000000007105)"><g clip-path="url(#846a4f6291)"><g clip-path="url(#410bdb0a84)"><path fill="#ffffff" d="M 0.554688 0.441406 L 9.308594 0.441406 L 9.308594 34.605469 L 0.554688 34.605469 Z M 0.554688 0.441406 " fill-opacity="1" fill-rule="nonzero"/></g></g></g></g><g clip-path="url(#847d4096de)"><g transform="matrix(1, 0, 0, 1, 110, -0.000000000000007105)"><g clip-path="url(#f9312cbf77)"><g clip-path="url(#b56dc16476)"><path fill="#ffffff" d="M 0.800781 0.460938 L 33.164062 0.460938 L 33.164062 7.816406 L 0.800781 7.816406 Z M 0.800781 0.460938 " fill-opacity="1" fill-rule="nonzero"/></g></g></g></g><g clip-path="url(#370d860a6c)"><g transform="matrix(1, 0, 0, 1, 110, 27)"><g clip-path="url(#95c482dc99)"><g clip-path="url(#20fe92542f)"><path fill="#ffffff" d="M 0.800781 0.0976562 L 33.175781 0.0976562 L 33.175781 7.449219 L 0.800781 7.449219 Z M 0.800781 0.0976562 " fill-opacity="1" fill-rule="nonzero"/></g></g></g></g><g clip-path="url(#be58677984)"><g transform="matrix(1, 0, 0, 1, 110, 13)"><g clip-path="url(#525033d36a)"><g clip-path="url(#3609fc44e3)"><path fill="#ffffff" d="M 0.496094 0.839844 L 31.070312 0.839844 L 31.070312 8.359375 L 0.496094 8.359375 Z M 0.496094 0.839844 " fill-opacity="1" fill-rule="nonzero"/></g></g></g></g><g clip-path="url(#6c56d9960d)"><path fill="#ffffff" d="M 76.433594 0.441406 L 83.304688 34.578125 L 92.554688 34.574219 L 85.609375 0.441406 Z M 76.433594 0.441406 " fill-opacity="1" fill-rule="nonzero"/></g><g clip-path="url(#b04d8b1f98)"><g clip-path="url(#9ee2340618)"><g transform="matrix(1, 0, 0, 1, 49, -0.000000000000007105)"><g clip-path="url(#5eb8fa3b4a)"><g clip-path="url(#168e03442b)"><g clip-path="url(#e0a5e00348)"><path fill="#ffffff" d="M 0.546875 0.441406 L 26.972656 0.441406 L 26.972656 34.609375 L 0.546875 34.609375 Z M 0.546875 0.441406 " fill-opacity="1" fill-rule="nonzero"/></g></g></g></g></g></g><g clip-path="url(#5fa13aae85)"><g clip-path="url(#3ea8ca4228)"><g transform="matrix(1, 0, 0, 1, 30, -0.000000000000007105)"><g clip-path="url(#176f4fb7b2)"><g clip-path="url(#9230765c7b)"><g clip-path="url(#f95fd42c0a)"><path fill="#ffffff" d="M 0.160156 0.441406 L 13.777344 0.441406 L 13.777344 34.59375 L 0.160156 34.59375 Z M 0.160156 0.441406 " fill-opacity="1" fill-rule="nonzero"/></g></g></g></g></g></g><g clip-path="url(#25f75dd4d0)"><g clip-path="url(#097e9f4207)"><g transform="matrix(1, 0, 0, 1, 0.000000000000000888, 27)"><g clip-path="url(#977c063e83)"><g clip-path="url(#dd29740bda)"><g clip-path="url(#3c8a1ba061)"><path fill="#ffffff" d="M 0.0429688 0.0976562 L 28.816406 0.0976562 L 28.816406 7.664062 L 0.0429688 7.664062 Z M 0.0429688 0.0976562 " fill-opacity="1" fill-rule="nonzero"/></g></g></g></g></g></g><g clip-path="url(#ad4d6a4b89)"><g transform="matrix(1, 0, 0, 1, 0.000000000000000888, 47)"><g clip-path="url(#1e52ed4925)"><g clip-path="url(#0f61ac9526)"><path fill="#d10010" d="M 0.460938 0.960938 L 297.164062 0.960938 L 297.164062 4.230469 L 0.460938 4.230469 Z M 0.460938 0.960938 " fill-opacity="1" fill-rule="nonzero"/></g></g></g></g></g></g></svg>